<svg xmlns="http://www.w3.org/2000/svg" xmlns:xlink="http://www.w3.org/1999/xlink" viewBox="0 0 599.8 402.8"><defs><style>.cls-1{isolation:isolate;}.cls-2{fill:none;}.cls-3{fill:#350003;}.cls-4{fill:url(#linear-gradient);}.cls-5{fill:url(#linear-gradient-2);}.cls-10,.cls-6{mix-blend-mode:screen;}.cls-6{fill:url(#linear-gradient-3);}.cls-7{fill:#4c0d27;}.cls-8{fill:url(#linear-gradient-4);}.cls-9{fill:url(#linear-gradient-5);}.cls-10{fill:url(#linear-gradient-6);}.cls-11{fill:url(#linear-gradient-7);}.cls-12{fill:red;}</style><linearGradient id="linear-gradient" x1="207.55" y1="118.15" x2="372.88" y2="118.15" gradientUnits="userSpaceOnUse"><stop offset="0" stop-color="red"/><stop offset="0.11" stop-color="#f90000"/><stop offset="0.27" stop-color="#e80000"/><stop offset="0.44" stop-color="#c00"/><stop offset="0.63" stop-color="#a50000"/><stop offset="0.83" stop-color="#730001"/><stop offset="1" stop-color="#450001"/></linearGradient><linearGradient id="linear-gradient-2" x1="272.89" y1="206.55" x2="373.62" y2="46.34" xlink:href="#linear-gradient"/><linearGradient id="linear-gradient-3" x1="451.72" y1="424.43" x2="560.48" y2="424.43" gradientUnits="userSpaceOnUse"><stop offset="0"/><stop offset="1" stop-color="#fff" stop-opacity="0.5"/></linearGradient><linearGradient id="linear-gradient-4" x1="384.62" y1="212.8" x2="331.41" y2="145.7" gradientUnits="userSpaceOnUse"><stop offset="0" stop-color="#ef0000"/><stop offset="1" stop-color="#5d0f28"/></linearGradient><linearGradient id="linear-gradient-5" x1="335.52" y1="221.94" x2="333.43" y2="143.33" gradientUnits="userSpaceOnUse"><stop offset="0" stop-color="red"/><stop offset="1" stop-color="#5d0f28"/></linearGradient><linearGradient id="linear-gradient-6" x1="535.16" y1="483.55" x2="575.51" y2="483.55" gradientUnits="userSpaceOnUse"><stop offset="0" stop-color="#fff" stop-opacity="0.5"/><stop offset="1"/></linearGradient><linearGradient id="linear-gradient-7" x1="342.15" y1="206.8" x2="303.97" y2="173.77" xlink:href="#linear-gradient-5"/></defs><title>Logo</title><g class="cls-1"><g id="Layer_1" data-name="Layer 1"><path d="M677.65,403.55a13.84,13.84,0,0,0-12.57,20.19l-60.61,60a110.25,110.25,0,0,0,8.59-42.82c0-1.11,0-2.21-.06-3.31l-8.55,8.46h0a102.31,102.31,0,0,1-28.21,65.61l-4.46,4.41a103.09,103.09,0,0,1-22.73,16L534.3,547.25q4.77-1.46,9.34-3.32l.22-.09,0,0a111.18,111.18,0,0,0,34.13-22l.08-.07q2-1.86,3.86-3.82l.07-.07,89.05-88.14a13.69,13.69,0,0,0,6.06,1.52,13.85,13.85,0,0,0,.51-27.69Zm-.36,19.22a5.38,5.38,0,1,1,5.48-5.28A5.39,5.39,0,0,1,677.29,422.77Z" transform="translate(-200.1 -298.6)"/><path d="M600.42,412l6.77-6.7a111.65,111.65,0,0,0-56.81-64.36l15.65-16a13.8,13.8,0,1,0-6.11-5.88l-17.84,18.25a110.05,110.05,0,0,0-30.43-7.1l-7.86,8.07a102.1,102.1,0,0,1,31.8,5.66L514.4,365.56h11.85l17.86-18.27A103.17,103.17,0,0,1,600.42,412ZM572.13,307.07a5.38,5.38,0,1,1-5.38,5.38A5.38,5.38,0,0,1,572.13,307.07Z" transform="translate(-200.1 -298.6)"/><path d="M428.22,369.41l.35-.35,2.37-2.34,0,0a103.47,103.47,0,0,1,24.41-17.33l0,0L470,334.41a110.69,110.69,0,0,0-45.14,26.46l-2,1.95-94.71,93.73a13.87,13.87,0,1,0,6,6L399.34,398a110.53,110.53,0,0,0-8.62,42.91c0,1,0,2,0,3l8.57-8.49A102.4,102.4,0,0,1,428.22,369.41ZM321.71,474.25a5.38,5.38,0,1,1,5.48-5.27A5.37,5.37,0,0,1,321.71,474.25Z" transform="translate(-200.1 -298.6)"/><path d="M467.4,537.64l17.45-17.91-6.07-5.91-19.84,20.36A103.2,103.2,0,0,1,403.38,470l-6.76,6.69a111.73,111.73,0,0,0,56.09,63.93l-19.33,19.84a13.86,13.86,0,1,0,6.1,5.87l21.47-22a110.62,110.62,0,0,0,31.3,7.39l7.86-8.07A102,102,0,0,1,467.4,537.64Zm-40.11,40.6a5.38,5.38,0,1,1,5.38-5.38A5.39,5.39,0,0,1,427.29,578.24Z" transform="translate(-200.1 -298.6)"/><line class="cls-2" x1="375.7" y1="222.82" x2="375.35" y2="222.17"/><path class="cls-3" d="M405.4,455.64l45.88,34.18L494,521.63l.59.44h.65l.58-1.3,35.77-80.15.18-.39.39-.88L576,341.07Zm125.76-17.26-36.62,82-42.42-31.6-44.47-33.12L573,344.69v0Z" transform="translate(-200.1 -298.6)"/><polyline class="cls-2" points="332.32 142.84 331.66 141.63 331.27 140.9"/><polygon class="cls-4" points="372.88 46.09 372.87 46.12 252.02 190.21 207.55 157.09 372.88 46.09"/><polygon class="cls-5" points="372.87 46.12 331.06 139.78 294.44 221.81 252.02 190.21 372.87 46.12"/><path class="cls-6" d="M560.48,359.52c-4.42,5.51-8.9,11-13.35,16.43l-13.46,16.34c-9,10.89-18,21.7-27.07,32.55s-18.17,21.61-27.31,32.36l-13.73,16.11c-4.62,5.34-9.2,10.71-13.84,16,4.42-5.5,8.9-10.95,13.35-16.43l13.45-16.34c9-10.89,18.05-21.7,27.08-32.55s18.16-21.61,27.31-32.36l13.73-16.11C551.25,370.2,555.83,364.84,560.48,359.52Z" transform="translate(-200.1 -298.6)"/><path class="cls-7" d="M532.15,439.35l-1-1-36.62,82-.55,1.22.59.44H576.1l18.73-21.3Zm43.36,81.42H495.8l35.78-80.15.84.82h0L593,500.83Z" transform="translate(-200.1 -298.6)"/><polygon class="cls-8" points="392.94 202.23 375.4 222.17 375.35 222.17 332.32 142.84 392.94 202.23"/><polygon class="cls-9" points="375.35 222.17 295.71 222.17 331.48 142.02 332.32 142.84 332.32 142.84 375.35 222.17"/><path class="cls-10" d="M535.16,446.33q4.9,8.28,9.59,16.69T554,479.88c3,5.65,6.06,11.3,9,17s9.65,18.13,12.48,23.89c-3.27-5.52-10.25-17.81-13.38-23.41s-6.21-11.22-9.26-16.86-6.06-11.31-9-17S538,452.09,535.16,446.33Z" transform="translate(-200.1 -298.6)"/><polygon class="cls-11" points="331.48 142.02 297.69 222.17 295.71 222.17 331.48 142.02"/><path d="M200.1,697.64V685h4.64a5.06,5.06,0,0,1,2.23.44,3,3,0,0,1,1.32,1.19,3.33,3.33,0,0,1,.44,1.69,2.81,2.81,0,0,1-.29,1.33,2.44,2.44,0,0,1-.78.87,3.37,3.37,0,0,1-1.06.47v.13a2.52,2.52,0,0,1,1.23.4,3,3,0,0,1,1,1.06,3.33,3.33,0,0,1,.39,1.67,3.37,3.37,0,0,1-.45,1.74,3.1,3.1,0,0,1-1.4,1.21,5.65,5.65,0,0,1-2.42.45Zm1.91-7.18h2.56a2.74,2.74,0,0,0,1.16-.24,2.08,2.08,0,0,0,.82-.7,1.86,1.86,0,0,0,.31-1.06,1.77,1.77,0,0,0-.55-1.31,2.33,2.33,0,0,0-1.69-.54H202Zm0,5.55h2.76a2.87,2.87,0,0,0,2-.54,1.67,1.67,0,0,0,.59-1.32,2.09,2.09,0,0,0-.3-1.1,2.15,2.15,0,0,0-.86-.8,2.75,2.75,0,0,0-1.33-.3H202Z" transform="translate(-200.1 -298.6)"/><path d="M219.09,693.71v-5.56h1.85v9.49h-1.82V696H219a2.91,2.91,0,0,1-1.05,1.26,3,3,0,0,1-1.79.51,3.2,3.2,0,0,1-1.62-.41,2.85,2.85,0,0,1-1.1-1.2,4.46,4.46,0,0,1-.4-2v-6h1.85V694a2.16,2.16,0,0,0,.54,1.54,1.84,1.84,0,0,0,1.4.58,2.27,2.27,0,0,0,1.89-1.05A2.37,2.37,0,0,0,219.09,693.71Z" transform="translate(-200.1 -298.6)"/><path d="M226.09,686.69a1.12,1.12,0,0,1-.82-.33,1,1,0,0,1,0-1.55,1.12,1.12,0,0,1,.82-.33,1.16,1.16,0,0,1,.83.33,1.05,1.05,0,0,1,0,1.55A1.16,1.16,0,0,1,226.09,686.69Zm-.93,10.95v-9.49H227v9.49Z" transform="translate(-200.1 -298.6)"/><path d="M233.08,685v12.65h-1.85V685Z" transform="translate(-200.1 -298.6)"/><path d="M240.85,697.83a3.66,3.66,0,0,1-2-.59,4,4,0,0,1-1.41-1.69,7.06,7.06,0,0,1,0-5.27,4,4,0,0,1,1.42-1.67,3.67,3.67,0,0,1,2.05-.58,3,3,0,0,1,1.42.29,2.68,2.68,0,0,1,.84.69,5,5,0,0,1,.47.68h.11V685h1.85v12.65h-1.81v-1.47h-.15a4.89,4.89,0,0,1-.48.69,2.62,2.62,0,0,1-.86.68A3,3,0,0,1,240.85,697.83Zm.41-1.58a2.17,2.17,0,0,0,1.35-.42,2.55,2.55,0,0,0,.84-1.18,4.9,4.9,0,0,0,.29-1.75,4.79,4.79,0,0,0-.28-1.73,2.54,2.54,0,0,0-.84-1.16,2.24,2.24,0,0,0-1.36-.41,2.19,2.19,0,0,0-1.39.43,2.65,2.65,0,0,0-.84,1.18,5,5,0,0,0-.28,1.69,4.87,4.87,0,0,0,.29,1.71,2.66,2.66,0,0,0,.84,1.2A2.11,2.11,0,0,0,241.26,696.25Z" transform="translate(-200.1 -298.6)"/><path d="M250.86,686.69a1.12,1.12,0,0,1-.82-.33,1,1,0,0,1,0-1.55,1.12,1.12,0,0,1,.82-.33,1.16,1.16,0,0,1,.83.33,1.05,1.05,0,0,1,0,1.55A1.16,1.16,0,0,1,250.86,686.69Zm-.93,10.95v-9.49h1.85v9.49Z" transform="translate(-200.1 -298.6)"/><path d="M257.85,692v5.63H256v-9.49h1.77v1.55h.12a2.64,2.64,0,0,1,1-1.21,3.15,3.15,0,0,1,1.77-.46,3.45,3.45,0,0,1,1.7.4,2.8,2.8,0,0,1,1.13,1.2,4.37,4.37,0,0,1,.4,2v6h-1.85v-5.81a2.34,2.34,0,0,0-.53-1.62,1.91,1.91,0,0,0-1.48-.58,2.24,2.24,0,0,0-1.14.28,2,2,0,0,0-.79.81A2.73,2.73,0,0,0,257.85,692Z" transform="translate(-200.1 -298.6)"/><path d="M272.11,701.4a5.61,5.61,0,0,1-1.94-.3,3.84,3.84,0,0,1-1.33-.78,3.34,3.34,0,0,1-.76-1.07l1.59-.66a3.55,3.55,0,0,0,.44.58,2.22,2.22,0,0,0,.77.52,3,3,0,0,0,1.25.22,2.85,2.85,0,0,0,1.74-.51,1.9,1.9,0,0,0,.68-1.62v-1.87h-.11a6.29,6.29,0,0,1-.48.68,2.8,2.8,0,0,1-.86.64,3.16,3.16,0,0,1-1.41.27,3.87,3.87,0,0,1-2-.53,3.66,3.66,0,0,1-1.42-1.56,5.6,5.6,0,0,1-.52-2.55,6,6,0,0,1,.51-2.59,3.88,3.88,0,0,1,1.42-1.66,3.69,3.69,0,0,1,2.05-.58,3.1,3.1,0,0,1,1.43.29,2.68,2.68,0,0,1,.84.69,4.34,4.34,0,0,1,.48.68h.13v-1.54h1.81v9.7a3.13,3.13,0,0,1-2.1,3.17A6,6,0,0,1,272.11,701.4Zm0-5.43a2.43,2.43,0,0,0,1.35-.37,2.3,2.3,0,0,0,.84-1.08,4.28,4.28,0,0,0,.29-1.68,4.64,4.64,0,0,0-.28-1.69,2.48,2.48,0,0,0-.84-1.14,2.22,2.22,0,0,0-1.36-.41,2.19,2.19,0,0,0-1.39.43,2.5,2.5,0,0,0-.83,1.16,4.53,4.53,0,0,0-.29,1.65,4.31,4.31,0,0,0,.29,1.63,2.41,2.41,0,0,0,.84,1.1A2.32,2.32,0,0,0,272.09,696Z" transform="translate(-200.1 -298.6)"/><path d="M289.72,697.85a3.92,3.92,0,0,1-1.63-.33,2.75,2.75,0,0,1-1.15-1,2.84,2.84,0,0,1-.42-1.58,2.51,2.51,0,0,1,.31-1.32,2.18,2.18,0,0,1,.83-.82,4.33,4.33,0,0,1,1.17-.46,11.92,11.92,0,0,1,1.33-.23l1.38-.17a1.94,1.94,0,0,0,.77-.21.52.52,0,0,0,.24-.48v0a1.68,1.68,0,0,0-.45-1.25,1.83,1.83,0,0,0-1.35-.45,2.34,2.34,0,0,0-1.47.42,2.25,2.25,0,0,0-.74.91l-1.73-.4a3.27,3.27,0,0,1,.9-1.4,3.77,3.77,0,0,1,1.38-.78,5.5,5.5,0,0,1,1.63-.24,5.8,5.8,0,0,1,1.21.13,3.5,3.5,0,0,1,1.2.49,2.7,2.7,0,0,1,.92,1,3.5,3.5,0,0,1,.36,1.69v6.3H292.6v-1.29h-.07a2.59,2.59,0,0,1-.54.7,2.88,2.88,0,0,1-.92.57A3.4,3.4,0,0,1,289.72,697.85Zm.4-1.48a2.71,2.71,0,0,0,1.32-.3,2.13,2.13,0,0,0,.83-.8,2.05,2.05,0,0,0,.29-1V693a1.11,1.11,0,0,1-.38.18c-.19.05-.4.1-.64.14l-.7.11-.57.07a4.69,4.69,0,0,0-1,.23,1.68,1.68,0,0,0-.7.46,1.15,1.15,0,0,0-.26.8,1.18,1.18,0,0,0,.5,1A2.25,2.25,0,0,0,290.12,696.37Z" transform="translate(-200.1 -298.6)"/><path d="M309.2,697.64h-4.1V685h4.23a6.3,6.3,0,0,1,3.19.76,5,5,0,0,1,2.05,2.16,8.36,8.36,0,0,1,0,6.79,5.15,5.15,0,0,1-2.08,2.18A6.61,6.61,0,0,1,309.2,697.64ZM307,696h2.09a4.84,4.84,0,0,0,2.4-.55,3.4,3.4,0,0,0,1.43-1.59,6,6,0,0,0,.48-2.54,6.14,6.14,0,0,0-.47-2.53,3.45,3.45,0,0,0-1.41-1.58,4.66,4.66,0,0,0-2.32-.53H307Z" transform="translate(-200.1 -298.6)"/><path d="M323.34,697.83a4.63,4.63,0,0,1-2.41-.6,4.08,4.08,0,0,1-1.56-1.7,5.76,5.76,0,0,1-.55-2.57,5.82,5.82,0,0,1,.55-2.57,4.07,4.07,0,0,1,3.84-2.36,4.82,4.82,0,0,1,1.56.26,3.83,3.83,0,0,1,1.35.84,3.94,3.94,0,0,1,.95,1.47,6.24,6.24,0,0,1,.34,2.2v.65h-7.54v-1.38h5.73a2.86,2.86,0,0,0-.29-1.3,2.23,2.23,0,0,0-2.09-1.21,2.33,2.33,0,0,0-1.35.38,2.54,2.54,0,0,0-.89,1,2.85,2.85,0,0,0-.31,1.32v1.08a3.6,3.6,0,0,0,.33,1.62,2.39,2.39,0,0,0,.94,1,2.85,2.85,0,0,0,1.42.35,2.93,2.93,0,0,0,1-.15,2.05,2.05,0,0,0,.75-.46,2,2,0,0,0,.48-.74l1.75.31a3.1,3.1,0,0,1-.75,1.35,3.81,3.81,0,0,1-1.36.9A5.09,5.09,0,0,1,323.34,697.83Z" transform="translate(-200.1 -298.6)"/><path d="M335.21,697.83a4.32,4.32,0,0,1-2.37-.62,4.09,4.09,0,0,1-1.52-1.74,5.67,5.67,0,0,1-.54-2.53,5.76,5.76,0,0,1,.55-2.55,4.18,4.18,0,0,1,1.53-1.74,4.34,4.34,0,0,1,2.33-.62,4.44,4.44,0,0,1,1.93.4,3.48,3.48,0,0,1,1.37,1.11,3.52,3.52,0,0,1,.62,1.68h-1.8a2.11,2.11,0,0,0-.68-1.15,2,2,0,0,0-1.41-.48,2.31,2.31,0,0,0-1.35.4,2.7,2.7,0,0,0-.9,1.15,4.5,4.5,0,0,0-.32,1.76,4.62,4.62,0,0,0,.32,1.79,2.65,2.65,0,0,0,.89,1.17,2.48,2.48,0,0,0,2.32.22,2.07,2.07,0,0,0,.72-.56,2.24,2.24,0,0,0,.41-.88h1.8a3.57,3.57,0,0,1-.6,1.64,3.38,3.38,0,0,1-1.34,1.14A4.32,4.32,0,0,1,335.21,697.83Z" transform="translate(-200.1 -298.6)"/><path d="M346.92,697.83a4.63,4.63,0,0,1-2.41-.6,4.08,4.08,0,0,1-1.56-1.7,5.76,5.76,0,0,1-.55-2.57,5.82,5.82,0,0,1,.55-2.57,4.07,4.07,0,0,1,3.84-2.36,4.82,4.82,0,0,1,1.56.26,3.83,3.83,0,0,1,1.35.84,3.94,3.94,0,0,1,.95,1.47,6.24,6.24,0,0,1,.34,2.2v.65h-7.54v-1.38h5.73a2.86,2.86,0,0,0-.29-1.3,2.47,2.47,0,0,0-3.44-.83,2.54,2.54,0,0,0-.89,1,2.85,2.85,0,0,0-.31,1.32v1.08a3.6,3.6,0,0,0,.33,1.62,2.35,2.35,0,0,0,.95,1,2.78,2.78,0,0,0,1.41.35,2.93,2.93,0,0,0,1-.15,2.05,2.05,0,0,0,.75-.46,2,2,0,0,0,.48-.74l1.75.31a3.1,3.1,0,0,1-.75,1.35,3.72,3.72,0,0,1-1.36.9A5.09,5.09,0,0,1,346.92,697.83Z" transform="translate(-200.1 -298.6)"/><path d="M356.64,692v5.63h-1.85v-9.49h1.77v1.55h.12a2.64,2.64,0,0,1,1-1.21,3.15,3.15,0,0,1,1.77-.46,3.45,3.45,0,0,1,1.7.4,2.74,2.74,0,0,1,1.13,1.2,4.37,4.37,0,0,1,.4,2v6h-1.84v-5.81a2.3,2.3,0,0,0-.54-1.62,1.91,1.91,0,0,0-1.48-.58,2.24,2.24,0,0,0-1.14.28,1.91,1.91,0,0,0-.78.81A2.62,2.62,0,0,0,356.64,692Z" transform="translate(-200.1 -298.6)"/><path d="M371.35,688.15v1.48h-5.18v-1.48Zm-3.79-2.27h1.85v9a1.55,1.55,0,0,0,.16.8.83.83,0,0,0,.42.37,1.63,1.63,0,0,0,.55.09,2.21,2.21,0,0,0,.39,0l.26-.05.34,1.53-.46.13a4.65,4.65,0,0,1-.74.07,3.4,3.4,0,0,1-1.36-.26,2.32,2.32,0,0,1-1-.84,2.48,2.48,0,0,1-.39-1.43Z" transform="translate(-200.1 -298.6)"/><path d="M375.13,697.64v-9.49h1.79v1.51h.1a2.32,2.32,0,0,1,.92-1.21,2.61,2.61,0,0,1,1.49-.44h.41l.37,0v1.77l-.39-.07a3.64,3.64,0,0,0-.57,0,2.46,2.46,0,0,0-1.17.27,2.16,2.16,0,0,0-.8.76,2.1,2.1,0,0,0-.3,1.11v5.79Z" transform="translate(-200.1 -298.6)"/><path d="M386.32,697.85a3.92,3.92,0,0,1-1.63-.33,2.69,2.69,0,0,1-1.15-1,2.85,2.85,0,0,1-.43-1.58,2.6,2.6,0,0,1,.31-1.32,2.28,2.28,0,0,1,.84-.82,4.33,4.33,0,0,1,1.17-.46,11.37,11.37,0,0,1,1.32-.23l1.39-.17a1.94,1.94,0,0,0,.77-.21.52.52,0,0,0,.24-.48v0a1.68,1.68,0,0,0-.45-1.25,1.87,1.87,0,0,0-1.35-.45,2.32,2.32,0,0,0-1.47.42,2.17,2.17,0,0,0-.74.91l-1.74-.4a3.38,3.38,0,0,1,.91-1.4,3.81,3.81,0,0,1,1.37-.78,5.56,5.56,0,0,1,1.64-.24,5.87,5.87,0,0,1,1.21.13,3.5,3.5,0,0,1,1.2.49,2.7,2.7,0,0,1,.92,1,3.5,3.5,0,0,1,.35,1.69v6.3h-1.8v-1.29h-.07a2.59,2.59,0,0,1-.54.7,2.88,2.88,0,0,1-.92.57A3.47,3.47,0,0,1,386.32,697.85Zm.4-1.48a2.74,2.74,0,0,0,1.32-.3,2.13,2.13,0,0,0,.83-.8,2.05,2.05,0,0,0,.29-1V693a1.22,1.22,0,0,1-.38.18c-.19.05-.4.1-.64.14l-.7.11-.57.07a4.69,4.69,0,0,0-1,.23,1.68,1.68,0,0,0-.7.46,1.16,1.16,0,0,0-.27.8,1.17,1.17,0,0,0,.51,1A2.25,2.25,0,0,0,386.72,696.37Z" transform="translate(-200.1 -298.6)"/><path d="M397.05,685v12.65H395.2V685Z" transform="translate(-200.1 -298.6)"/><path d="M402.21,686.69a1.16,1.16,0,0,1-.83-.33,1.05,1.05,0,0,1,0-1.55,1.16,1.16,0,0,1,.83-.33,1.14,1.14,0,0,1,.82.33,1,1,0,0,1,0,1.55A1.14,1.14,0,0,1,402.21,686.69Zm-.93,10.95v-9.49h1.84v9.49Z" transform="translate(-200.1 -298.6)"/><path d="M407.15,697.64v-1.26l5.14-6.53v-.09h-5v-1.61h7.27v1.35L409.65,696V696h5.12v1.6Z" transform="translate(-200.1 -298.6)"/><path d="M422.5,697.83a4.63,4.63,0,0,1-2.41-.6,4,4,0,0,1-1.56-1.7A5.76,5.76,0,0,1,418,693a5.82,5.82,0,0,1,.55-2.57,4.07,4.07,0,0,1,3.84-2.36,4.82,4.82,0,0,1,1.56.26,3.83,3.83,0,0,1,1.35.84,3.94,3.94,0,0,1,1,1.47,6.24,6.24,0,0,1,.34,2.2v.65H419v-1.38h5.73a2.86,2.86,0,0,0-.29-1.3,2.23,2.23,0,0,0-2.09-1.21,2.33,2.33,0,0,0-1.35.38,2.54,2.54,0,0,0-.89,1,2.85,2.85,0,0,0-.31,1.32v1.08a3.6,3.6,0,0,0,.33,1.62,2.39,2.39,0,0,0,.94,1,2.85,2.85,0,0,0,1.42.35,2.93,2.93,0,0,0,1-.15,2,2,0,0,0,.74-.46,1.88,1.88,0,0,0,.49-.74l1.75.31a3.1,3.1,0,0,1-.75,1.35,3.81,3.81,0,0,1-1.36.9A5.09,5.09,0,0,1,422.5,697.83Z" transform="translate(-200.1 -298.6)"/><path d="M433.92,697.83a3.66,3.66,0,0,1-2-.59,4,4,0,0,1-1.41-1.69,7.06,7.06,0,0,1,0-5.27,4,4,0,0,1,1.42-1.67,3.67,3.67,0,0,1,2.05-.58,3,3,0,0,1,1.42.29,2.68,2.68,0,0,1,.84.69,5,5,0,0,1,.47.68h.11V685h1.85v12.65h-1.81v-1.47h-.15a4.89,4.89,0,0,1-.48.69,2.73,2.73,0,0,1-.86.68A3,3,0,0,1,433.92,697.83Zm.41-1.58a2.17,2.17,0,0,0,1.35-.42,2.55,2.55,0,0,0,.84-1.18,4.9,4.9,0,0,0,.29-1.75,5,5,0,0,0-.28-1.73,2.54,2.54,0,0,0-.84-1.16,2.24,2.24,0,0,0-1.36-.41,2.19,2.19,0,0,0-1.39.43,2.65,2.65,0,0,0-.84,1.18,5,5,0,0,0-.28,1.69,4.87,4.87,0,0,0,.29,1.71,2.66,2.66,0,0,0,.84,1.2A2.11,2.11,0,0,0,434.33,696.25Z" transform="translate(-200.1 -298.6)"/><path d="M459.71,685v12.65H458l-6.44-9.28h-.11v9.28H449.5V685h1.76l6.44,9.29h.12V685Z" transform="translate(-200.1 -298.6)"/><path d="M468.17,697.83a4.63,4.63,0,0,1-2.41-.6,4.08,4.08,0,0,1-1.56-1.7,5.76,5.76,0,0,1-.54-2.57,5.82,5.82,0,0,1,.54-2.57A4.07,4.07,0,0,1,468,688a4.82,4.82,0,0,1,1.56.26,3.83,3.83,0,0,1,1.35.84,3.94,3.94,0,0,1,.95,1.47,6.24,6.24,0,0,1,.34,2.2v.65H464.7v-1.38h5.73a2.74,2.74,0,0,0-.29-1.3,2.47,2.47,0,0,0-3.44-.83,2.54,2.54,0,0,0-.89,1,2.85,2.85,0,0,0-.31,1.32v1.08a3.6,3.6,0,0,0,.33,1.62,2.35,2.35,0,0,0,.95,1,2.78,2.78,0,0,0,1.41.35,2.93,2.93,0,0,0,1-.15,2.05,2.05,0,0,0,.75-.46,2,2,0,0,0,.48-.74l1.75.31a3.1,3.1,0,0,1-.75,1.35,3.72,3.72,0,0,1-1.36.9A5.09,5.09,0,0,1,468.17,697.83Z" transform="translate(-200.1 -298.6)"/><path d="M480.47,688.15v1.48h-5.18v-1.48Zm-3.79-2.27h1.85v9a1.55,1.55,0,0,0,.16.8.81.81,0,0,0,.41.37,1.69,1.69,0,0,0,.56.09,2.21,2.21,0,0,0,.39,0l.26-.05.34,1.53-.46.13a4.77,4.77,0,0,1-.74.07,3.4,3.4,0,0,1-1.36-.26,2.32,2.32,0,0,1-1-.84,2.48,2.48,0,0,1-.39-1.43Z" transform="translate(-200.1 -298.6)"/><path d="M486.31,697.64l-2.79-9.49h1.9l1.87,7h.09l1.86-7h1.91l1.86,6.94h.09l1.85-6.94h1.91l-2.79,9.49h-1.89l-1.92-6.85h-.14l-1.93,6.85Z" transform="translate(-200.1 -298.6)"/><path d="M504.17,697.83a4.33,4.33,0,0,1-2.33-.61,4.12,4.12,0,0,1-1.54-1.71,5.63,5.63,0,0,1-.55-2.57,5.7,5.7,0,0,1,.55-2.58,4.09,4.09,0,0,1,1.54-1.72,4.75,4.75,0,0,1,4.66,0,4.09,4.09,0,0,1,1.54,1.72,5.7,5.7,0,0,1,.55,2.58,5.63,5.63,0,0,1-.55,2.57,4.12,4.12,0,0,1-1.54,1.71A4.33,4.33,0,0,1,504.17,697.83Zm0-1.55a2.24,2.24,0,0,0,1.43-.45,2.68,2.68,0,0,0,.84-1.22,5.15,5.15,0,0,0,0-3.35,2.73,2.73,0,0,0-.84-1.22,2.44,2.44,0,0,0-2.88,0,2.73,2.73,0,0,0-.84,1.22,5.15,5.15,0,0,0,0,3.35,2.68,2.68,0,0,0,.84,1.22A2.26,2.26,0,0,0,504.18,696.28Z" transform="translate(-200.1 -298.6)"/><path d="M512.39,697.64v-9.49h1.79v1.51h.1a2.3,2.3,0,0,1,.91-1.21,2.67,2.67,0,0,1,1.5-.44h.41l.37,0v1.77l-.4-.07a3.43,3.43,0,0,0-.56,0,2.46,2.46,0,0,0-1.17.27,2.09,2.09,0,0,0-1.1,1.87v5.79Z" transform="translate(-200.1 -298.6)"/><path d="M520.82,697.64V685h1.84v12.65Zm1.7-3.22,0-2.25h.33l3.78-4h2.21l-4.31,4.57h-.29Zm4.29,3.22-3.4-4.51,1.28-1.29,4.39,5.8Z" transform="translate(-200.1 -298.6)"/><path d="M542.59,697.83a4.33,4.33,0,0,1-2.33-.61,4.14,4.14,0,0,1-1.55-1.71,5.76,5.76,0,0,1-.55-2.57,5.83,5.83,0,0,1,.55-2.58,4.11,4.11,0,0,1,1.55-1.72,4.75,4.75,0,0,1,4.66,0,4.15,4.15,0,0,1,1.54,1.72,5.7,5.7,0,0,1,.55,2.58,5.63,5.63,0,0,1-.55,2.57,4.19,4.19,0,0,1-1.54,1.71A4.35,4.35,0,0,1,542.59,697.83Zm0-1.55a2.25,2.25,0,0,0,1.44-.45,2.68,2.68,0,0,0,.84-1.22,5.33,5.33,0,0,0,0-3.35A2.73,2.73,0,0,0,544,690a2.44,2.44,0,0,0-2.88,0,2.83,2.83,0,0,0-.85,1.22,5.33,5.33,0,0,0,0,3.35,2.78,2.78,0,0,0,.85,1.22A2.25,2.25,0,0,0,542.59,696.28Z" transform="translate(-200.1 -298.6)"/><path d="M555.32,688.15v1.48H550v-1.48Zm-3.89,9.49V687.05a2.65,2.65,0,0,1,.39-1.48,2.51,2.51,0,0,1,1-.88,3.28,3.28,0,0,1,1.4-.29,4.31,4.31,0,0,1,1,.09,3.58,3.58,0,0,1,.59.16l-.43,1.49-.34-.09a2.24,2.24,0,0,0-.49,0,1.18,1.18,0,0,0-1,.34,1.43,1.43,0,0,0-.29,1v10.34Z" transform="translate(-200.1 -298.6)"/><path d="M569.56,697.64h-4.09V685h4.22a6.34,6.34,0,0,1,3.2.76,5,5,0,0,1,2,2.16,8.36,8.36,0,0,1,0,6.79,5.09,5.09,0,0,1-2.08,2.18A6.61,6.61,0,0,1,569.56,697.64ZM567.37,696h2.09a4.84,4.84,0,0,0,2.4-.55,3.4,3.4,0,0,0,1.43-1.59,6,6,0,0,0,.48-2.54,6.14,6.14,0,0,0-.47-2.53,3.45,3.45,0,0,0-1.41-1.58,4.66,4.66,0,0,0-2.32-.53h-2.2Z" transform="translate(-200.1 -298.6)"/><path d="M583.7,697.83a4.63,4.63,0,0,1-2.41-.6,4.08,4.08,0,0,1-1.56-1.7,5.76,5.76,0,0,1-.54-2.57,5.82,5.82,0,0,1,.54-2.57,4.09,4.09,0,0,1,3.84-2.36,4.82,4.82,0,0,1,1.56.26,3.83,3.83,0,0,1,1.35.84,3.94,3.94,0,0,1,.95,1.47,6.24,6.24,0,0,1,.34,2.2v.65h-7.54v-1.38H586a2.74,2.74,0,0,0-.29-1.3,2.47,2.47,0,0,0-3.44-.83,2.54,2.54,0,0,0-.89,1,2.85,2.85,0,0,0-.31,1.32v1.08a3.6,3.6,0,0,0,.33,1.62,2.35,2.35,0,0,0,.95,1,2.78,2.78,0,0,0,1.41.35,2.93,2.93,0,0,0,1-.15,2.05,2.05,0,0,0,.75-.46,2,2,0,0,0,.48-.74l1.75.31a3.1,3.1,0,0,1-.75,1.35,3.64,3.64,0,0,1-1.36.9A5.09,5.09,0,0,1,583.7,697.83Z" transform="translate(-200.1 -298.6)"/><path d="M595.57,697.83a4.32,4.32,0,0,1-2.37-.62,4.09,4.09,0,0,1-1.52-1.74,5.67,5.67,0,0,1-.53-2.53,5.76,5.76,0,0,1,.54-2.55,4.18,4.18,0,0,1,1.53-1.74,4.34,4.34,0,0,1,2.33-.62,4.41,4.41,0,0,1,1.93.4,3.48,3.48,0,0,1,1.37,1.11,3.42,3.42,0,0,1,.62,1.68h-1.8a2.15,2.15,0,0,0-.67-1.15,2.05,2.05,0,0,0-1.42-.48,2.31,2.31,0,0,0-1.35.4,2.7,2.7,0,0,0-.9,1.15,4.5,4.5,0,0,0-.32,1.76,4.62,4.62,0,0,0,.32,1.79,2.73,2.73,0,0,0,.89,1.17,2.48,2.48,0,0,0,2.32.22,2,2,0,0,0,.72-.56,2.11,2.11,0,0,0,.41-.88h1.8a3.57,3.57,0,0,1-.6,1.64,3.32,3.32,0,0,1-1.34,1.14A4.32,4.32,0,0,1,595.57,697.83Z" transform="translate(-200.1 -298.6)"/><path d="M607.28,697.83a4.63,4.63,0,0,1-2.41-.6,4.08,4.08,0,0,1-1.56-1.7,5.76,5.76,0,0,1-.54-2.57,5.82,5.82,0,0,1,.54-2.57,4.09,4.09,0,0,1,3.84-2.36,4.82,4.82,0,0,1,1.56.26,3.83,3.83,0,0,1,1.35.84,3.94,3.94,0,0,1,1,1.47,6.23,6.23,0,0,1,.35,2.2v.65h-7.55v-1.38h5.74a2.74,2.74,0,0,0-.3-1.3,2.47,2.47,0,0,0-3.44-.83,2.62,2.62,0,0,0-.89,1,2.85,2.85,0,0,0-.31,1.32v1.08a3.47,3.47,0,0,0,.34,1.62,2.27,2.27,0,0,0,.94,1,2.78,2.78,0,0,0,1.41.35,2.93,2.93,0,0,0,1-.15,2.05,2.05,0,0,0,.75-.46,2,2,0,0,0,.48-.74l1.75.31a3.1,3.1,0,0,1-.75,1.35,3.64,3.64,0,0,1-1.36.9A5.05,5.05,0,0,1,607.28,697.83Z" transform="translate(-200.1 -298.6)"/><path d="M617,692v5.63h-1.85v-9.49h1.78v1.55H617a2.64,2.64,0,0,1,1-1.21,3.15,3.15,0,0,1,1.77-.46,3.42,3.42,0,0,1,1.7.4,2.68,2.68,0,0,1,1.13,1.2,4.37,4.37,0,0,1,.4,2v6h-1.84v-5.81a2.3,2.3,0,0,0-.54-1.62,1.91,1.91,0,0,0-1.48-.58,2.24,2.24,0,0,0-1.14.28,1.91,1.91,0,0,0-.78.81A2.73,2.73,0,0,0,617,692Z" transform="translate(-200.1 -298.6)"/><path d="M631.72,688.15v1.48h-5.19v-1.48Zm-3.8-2.27h1.85v9a1.55,1.55,0,0,0,.16.8.88.88,0,0,0,.42.37,1.64,1.64,0,0,0,.56.09,2.29,2.29,0,0,0,.39,0l.26-.05.33,1.53-.46.13a4.65,4.65,0,0,1-.74.07,3.4,3.4,0,0,1-1.36-.26,2.32,2.32,0,0,1-1-.84,2.48,2.48,0,0,1-.39-1.43Z" transform="translate(-200.1 -298.6)"/><path d="M635.49,697.64v-9.49h1.79v1.51h.1a2.32,2.32,0,0,1,.92-1.21,2.64,2.64,0,0,1,1.49-.44h.41l.37,0v1.77l-.39-.07a3.64,3.64,0,0,0-.57,0,2.42,2.42,0,0,0-1.16.27,2.19,2.19,0,0,0-.81.76,2.1,2.1,0,0,0-.3,1.11v5.79Z" transform="translate(-200.1 -298.6)"/><path d="M646.68,697.85a3.92,3.92,0,0,1-1.63-.33,2.75,2.75,0,0,1-1.15-1,2.84,2.84,0,0,1-.42-1.58,2.61,2.61,0,0,1,.3-1.32,2.28,2.28,0,0,1,.84-.82,4.33,4.33,0,0,1,1.17-.46,11.92,11.92,0,0,1,1.33-.23l1.38-.17a1.94,1.94,0,0,0,.77-.21.52.52,0,0,0,.24-.48v0a1.68,1.68,0,0,0-.45-1.25,1.83,1.83,0,0,0-1.35-.45,2.34,2.34,0,0,0-1.47.42,2.17,2.17,0,0,0-.74.91l-1.73-.4a3.27,3.27,0,0,1,.9-1.4,3.77,3.77,0,0,1,1.38-.78,5.5,5.5,0,0,1,1.63-.24,5.8,5.8,0,0,1,1.21.13,3.5,3.5,0,0,1,1.2.49,2.7,2.7,0,0,1,.92,1,3.5,3.5,0,0,1,.36,1.69v6.3h-1.81v-1.29h-.07a2.59,2.59,0,0,1-.54.7,2.77,2.77,0,0,1-.92.57A3.4,3.4,0,0,1,646.68,697.85Zm.4-1.48a2.71,2.71,0,0,0,1.32-.3,2.13,2.13,0,0,0,.83-.8,2.05,2.05,0,0,0,.29-1V693a1.11,1.11,0,0,1-.38.18c-.19.05-.4.1-.64.14l-.7.11-.57.07a4.69,4.69,0,0,0-1,.23,1.68,1.68,0,0,0-.7.46,1.15,1.15,0,0,0-.26.8,1.18,1.18,0,0,0,.5,1A2.25,2.25,0,0,0,647.08,696.37Z" transform="translate(-200.1 -298.6)"/><path d="M657.41,685v12.65h-1.84V685Z" transform="translate(-200.1 -298.6)"/><path d="M662.57,686.69a1.12,1.12,0,0,1-.82-.33,1,1,0,0,1,0-1.55,1.18,1.18,0,0,1,1.64,0,1,1,0,0,1,0,1.55A1.12,1.12,0,0,1,662.57,686.69Zm-.93,10.95v-9.49h1.84v9.49Z" transform="translate(-200.1 -298.6)"/><path d="M667.51,697.64v-1.26l5.14-6.53v-.09h-5v-1.61H675v1.35L670,696V696h5.12v1.6Z" transform="translate(-200.1 -298.6)"/><path d="M682.86,697.83a4.63,4.63,0,0,1-2.41-.6,4.08,4.08,0,0,1-1.56-1.7,5.76,5.76,0,0,1-.54-2.57,5.82,5.82,0,0,1,.54-2.57,4.09,4.09,0,0,1,3.84-2.36,4.82,4.82,0,0,1,1.56.26,3.83,3.83,0,0,1,1.35.84,3.94,3.94,0,0,1,1,1.47,6.23,6.23,0,0,1,.35,2.2v.65h-7.55v-1.38h5.74a2.74,2.74,0,0,0-.3-1.3,2.47,2.47,0,0,0-3.44-.83,2.62,2.62,0,0,0-.89,1,2.85,2.85,0,0,0-.31,1.32v1.08a3.6,3.6,0,0,0,.33,1.62,2.35,2.35,0,0,0,1,1,2.78,2.78,0,0,0,1.41.35,2.93,2.93,0,0,0,1-.15,2.05,2.05,0,0,0,.75-.46,2,2,0,0,0,.48-.74l1.75.31a3.1,3.1,0,0,1-.75,1.35,3.64,3.64,0,0,1-1.36.9A5.05,5.05,0,0,1,682.86,697.83Z" transform="translate(-200.1 -298.6)"/><path d="M694.29,697.83a3.67,3.67,0,0,1-2-.59,4,4,0,0,1-1.41-1.69,7.06,7.06,0,0,1,0-5.27,4,4,0,0,1,1.42-1.67,3.69,3.69,0,0,1,2-.58,3,3,0,0,1,1.42.29,2.68,2.68,0,0,1,.84.69,5,5,0,0,1,.47.68h.11V685H699v12.65h-1.81v-1.47H697a4.89,4.89,0,0,1-.48.69,2.62,2.62,0,0,1-.86.68A3,3,0,0,1,694.29,697.83Zm.4-1.58a2.15,2.15,0,0,0,1.35-.42,2.55,2.55,0,0,0,.84-1.18,4.69,4.69,0,0,0,.29-1.75,4.79,4.79,0,0,0-.28-1.73,2.54,2.54,0,0,0-.84-1.16,2.22,2.22,0,0,0-1.36-.41,2.19,2.19,0,0,0-1.39.43,2.56,2.56,0,0,0-.83,1.18,4.72,4.72,0,0,0-.28,1.69,4.87,4.87,0,0,0,.28,1.71,2.66,2.66,0,0,0,.84,1.2A2.15,2.15,0,0,0,694.69,696.25Z" transform="translate(-200.1 -298.6)"/><path d="M720.07,685v12.65h-1.75l-6.44-9.28h-.11v9.28h-1.91V685h1.76l6.44,9.29h.12V685Z" transform="translate(-200.1 -298.6)"/><path d="M728.53,697.83a4.66,4.66,0,0,1-2.41-.6,4.08,4.08,0,0,1-1.56-1.7A5.76,5.76,0,0,1,724,693a5.82,5.82,0,0,1,.54-2.57A4.09,4.09,0,0,1,728.4,688a4.82,4.82,0,0,1,1.56.26,3.74,3.74,0,0,1,1.35.84,3.94,3.94,0,0,1,1,1.47,6.23,6.23,0,0,1,.35,2.2v.65h-7.55v-1.38h5.74a2.74,2.74,0,0,0-.3-1.3,2.37,2.37,0,0,0-.83-.89,2.33,2.33,0,0,0-1.25-.32,2.38,2.38,0,0,0-1.36.38,2.62,2.62,0,0,0-.89,1,2.85,2.85,0,0,0-.31,1.32v1.08a3.47,3.47,0,0,0,.34,1.62,2.27,2.27,0,0,0,.94,1,2.78,2.78,0,0,0,1.41.35,2.93,2.93,0,0,0,1-.15,2.05,2.05,0,0,0,.75-.46,2,2,0,0,0,.48-.74l1.75.31a3.1,3.1,0,0,1-.75,1.35,3.68,3.68,0,0,1-1.35.9A5.15,5.15,0,0,1,728.53,697.83Z" transform="translate(-200.1 -298.6)"/><path d="M740.83,688.15v1.48h-5.18v-1.48ZM737,685.88h1.85v9a1.55,1.55,0,0,0,.16.8.83.83,0,0,0,.42.37,1.63,1.63,0,0,0,.55.09,2.21,2.21,0,0,0,.39,0l.26-.05.34,1.53-.46.13a4.65,4.65,0,0,1-.74.07,3.4,3.4,0,0,1-1.36-.26,2.32,2.32,0,0,1-1-.84,2.48,2.48,0,0,1-.39-1.43Z" transform="translate(-200.1 -298.6)"/><path d="M746.67,697.64l-2.79-9.49h1.91l1.86,7h.09l1.87-7h1.91l1.85,6.94h.09l1.85-6.94h1.91l-2.79,9.49h-1.88l-1.93-6.85h-.14l-1.93,6.85Z" transform="translate(-200.1 -298.6)"/><path d="M764.53,697.83a4.33,4.33,0,0,1-2.33-.61,4.12,4.12,0,0,1-1.54-1.71,5.63,5.63,0,0,1-.55-2.57,5.7,5.7,0,0,1,.55-2.58,4.09,4.09,0,0,1,1.54-1.72,4.75,4.75,0,0,1,4.66,0,4.18,4.18,0,0,1,1.55,1.72,5.83,5.83,0,0,1,.55,2.58,5.76,5.76,0,0,1-.55,2.57,4.21,4.21,0,0,1-1.55,1.71A4.33,4.33,0,0,1,764.53,697.83Zm0-1.55a2.24,2.24,0,0,0,1.43-.45,2.68,2.68,0,0,0,.84-1.22,5.15,5.15,0,0,0,0-3.35A2.73,2.73,0,0,0,766,690a2.2,2.2,0,0,0-1.43-.47,2.25,2.25,0,0,0-1.45.47,2.73,2.73,0,0,0-.84,1.22,5.15,5.15,0,0,0,0,3.35,2.68,2.68,0,0,0,.84,1.22A2.3,2.3,0,0,0,764.54,696.28Z" transform="translate(-200.1 -298.6)"/><path d="M772.75,697.64v-9.49h1.79v1.51h.1a2.32,2.32,0,0,1,.92-1.21,2.61,2.61,0,0,1,1.49-.44h.41l.37,0v1.77l-.39-.07a3.64,3.64,0,0,0-.57,0,2.46,2.46,0,0,0-1.17.27,2.16,2.16,0,0,0-.8.76,2.1,2.1,0,0,0-.3,1.11v5.79Z" transform="translate(-200.1 -298.6)"/><path d="M781.18,697.64V685H783v12.65Zm1.7-3.22v-2.25h.32l3.78-4h2.21l-4.31,4.57h-.29Zm4.29,3.22-3.4-4.51,1.28-1.29,4.39,5.8Z" transform="translate(-200.1 -298.6)"/><path d="M799.71,690.47l-1.67.3a2.07,2.07,0,0,0-.33-.62,1.72,1.72,0,0,0-.61-.47,2.25,2.25,0,0,0-1-.19,2.35,2.35,0,0,0-1.31.35,1,1,0,0,0-.52.9.94.94,0,0,0,.35.77,2.8,2.8,0,0,0,1.14.47l1.5.35a4,4,0,0,1,2,.93,2.23,2.23,0,0,1,.64,1.64,2.49,2.49,0,0,1-.49,1.52,3.31,3.31,0,0,1-1.37,1,5.09,5.09,0,0,1-2,.37,4.51,4.51,0,0,1-2.6-.68,2.85,2.85,0,0,1-1.24-1.94l1.79-.27a1.73,1.73,0,0,0,.68,1,2.35,2.35,0,0,0,1.36.36,2.51,2.51,0,0,0,1.45-.38A1.13,1.13,0,0,0,798,695a1,1,0,0,0-.33-.75,2.21,2.21,0,0,0-1-.46l-1.61-.35a3.81,3.81,0,0,1-2-1,2.31,2.31,0,0,1-.63-1.67,2.41,2.41,0,0,1,.47-1.47,3.07,3.07,0,0,1,1.3-1,4.86,4.86,0,0,1,1.89-.35,4,4,0,0,1,2.43.66A3.19,3.19,0,0,1,799.71,690.47Z" transform="translate(-200.1 -298.6)"/><path class="cls-12" d="M213.26,664.45H200.1V600.29h43.59v10.88H213.26v16.26h28.61v10.7H213.26Z" transform="translate(-200.1 -298.6)"/><path class="cls-12" d="M271.11,614.91h1.83a91.33,91.33,0,0,1,15,1.19v8.78H273.12a6.91,6.91,0,0,0-5.25,1.87,7.18,7.18,0,0,0-1.78,5.16v32.54H253.66v-33Q253.66,614.92,271.11,614.91Z" transform="translate(-200.1 -298.6)"/><path class="cls-12" d="M305.2,615.64,317.81,650l12.61-34.37H343l-24.31,66H306l6.86-17.18h-2.29l-18-48.81Z" transform="translate(-200.1 -298.6)"/><path class="cls-12" d="M408.84,600.29H422v64.16H408L383.7,621.58v42.87H370.54V600.29h14l24.31,42.86Z" transform="translate(-200.1 -298.6)"/><path class="cls-12" d="M477.65,632.46v12H446.31v3.38c0,2.81.64,4.83,1.92,6.08s3.32,1.88,6.12,1.88h21.11v8.13a115.26,115.26,0,0,1-18.55,1.28h-3.84q-19.2,0-19.19-17.55V632.46q0-17.55,19.19-17.55h5.39Q477.66,614.91,477.65,632.46Zm-31.34-.82v4h18.91v-3.2q0-8.13-7.58-8.13H453.8Q446.3,624.33,446.31,631.64Z" transform="translate(-200.1 -298.6)"/><path class="cls-12" d="M512.38,655.22H522.8v8.86a55.91,55.91,0,0,1-11.33,1.1h-3.56q-7,0-10.83-3.89t-3.89-10.83V625.61h-8.32v-10h8.32V603h12.43v12.61h16.63v10H505.62v22.84Q505.62,655.22,512.38,655.22Z" transform="translate(-200.1 -298.6)"/><path class="cls-12" d="M571.88,615.64l9.41,32.91,9.51-32.91h12.61l-15.26,48.81H575l-9-31.72-9.05,31.72H543.73l-15.26-48.81h12.61l9.5,32.91L560,615.64Z" transform="translate(-200.1 -298.6)"/><path class="cls-12" d="M609.35,647.63V632.46q0-17.55,19.1-17.55h7.86q19.19,0,19.19,17.55v15.17q0,17.55-19.19,17.55h-7.86Q609.36,665.18,609.35,647.63Zm33.72-.36V632.92q0-4.11-1.92-6.08t-6.12-2h-5.21q-4.2,0-6.12,2t-1.92,6.08v14.35q0,4.11,1.87,6t6.17,1.92H635q4.2,0,6.12-1.92T643.07,647.27Z" transform="translate(-200.1 -298.6)"/><path class="cls-12" d="M683.92,614.91h1.83a91.33,91.33,0,0,1,15,1.19v8.78H685.93a6.91,6.91,0,0,0-5.25,1.87,7.18,7.18,0,0,0-1.78,5.16v32.54H666.47v-33Q666.47,614.92,683.92,614.91Z" transform="translate(-200.1 -298.6)"/><path class="cls-12" d="M721.85,651.2v13.25H709.42v-66h12.43v36.1l15.45-18.92h14.62l-17.18,21,19.55,27.79H740.13l-13.25-19.19Z" transform="translate(-200.1 -298.6)"/><path class="cls-12" d="M777,634.2l11.33,1.92q6,1,8.82,4.29t2.79,9.32v1.56q0,6.94-3.75,10.42t-12.34,3.47h-5.94a98,98,0,0,1-16-1.19V655.4h20.38q5.21,0,5.21-4v-1.83c0-2.38-1.62-3.84-4.84-4.39l-11.34-1.92q-6.12-1-8.86-4.24t-2.74-9.28v-1.1q0-6.66,3.74-10.19t12.34-3.52h4.94a97.35,97.35,0,0,1,15.9,1.19v8.59H777.23a5.8,5.8,0,0,0-3.79,1.1,3.52,3.52,0,0,0-1.32,2.83v1.19Q772.12,633.38,777,634.2Z" transform="translate(-200.1 -298.6)"/></g></g></svg>