<svg id="svg" version="1.1" xmlns="http://www.w3.org/2000/svg" xmlns:xlink="http://www.w3.org/1999/xlink" width="400" height="399.20000000000005" viewBox="0, 0, 400,399.20000000000005"><g id="svgg"><path id="path0" d="M85.629 34.035 L 84.830 34.834 85.828 34.329 C 87.109 33.681,87.142 33.649,86.753 33.424 C 86.574 33.321,86.068 33.595,85.629 34.035 M75.449 41.517 C 75.449 41.737,75.719 41.916,76.048 41.916 C 76.377 41.916,76.647 41.737,76.647 41.517 C 76.647 41.297,76.377 41.118,76.048 41.118 C 75.719 41.118,75.449 41.297,75.449 41.517 M57.682 57.088 C 57.284 57.529,57.075 58.007,57.219 58.150 C 57.510 58.441,59.082 57.154,59.082 56.625 C 59.082 56.042,58.436 56.256,57.682 57.088 M187.566 79.436 C 181.004 81.148,173.653 87.701,173.653 91.838 C 173.653 92.240,173.473 92.679,173.253 92.814 C 173.034 92.950,172.854 93.377,172.854 93.763 C 172.854 94.149,172.315 95.518,171.657 96.806 C 170.998 98.094,170.459 99.387,170.459 99.679 C 170.459 99.971,170.295 100.522,170.093 100.904 C 169.480 102.067,168.584 104.306,168.059 105.988 C 167.785 106.866,167.435 107.764,167.282 107.984 C 167.129 108.204,166.686 109.281,166.299 110.379 C 165.911 111.477,165.365 112.914,165.085 113.573 C 164.806 114.232,163.902 116.477,163.076 118.563 C 162.250 120.649,161.328 122.921,161.027 123.613 C 160.725 124.305,160.479 124.980,160.479 125.112 C 160.479 125.245,160.030 126.284,159.481 127.422 C 158.932 128.560,158.483 129.806,158.483 130.191 C 158.483 130.576,158.303 131.002,158.084 131.138 C 157.864 131.273,157.685 131.787,157.685 132.279 C 157.685 132.771,157.521 133.344,157.320 133.553 C 156.902 133.989,155.116 138.272,154.251 140.918 C 153.927 141.906,153.425 143.164,153.135 143.713 C 152.845 144.261,152.119 146.058,151.521 147.705 C 150.924 149.351,150.279 151.058,150.089 151.497 C 149.898 151.936,149.179 153.733,148.490 155.489 C 146.912 159.510,146.731 159.955,145.949 161.737 C 145.597 162.539,145.309 163.303,145.309 163.436 C 145.309 163.568,144.860 164.608,144.311 165.745 C 143.762 166.883,143.313 168.052,143.313 168.344 C 143.313 168.635,143.144 169.185,142.937 169.566 C 142.730 169.948,141.826 172.146,140.929 174.451 C 140.031 176.756,139.122 178.955,138.910 179.336 C 138.697 179.717,138.523 180.303,138.523 180.639 C 138.523 180.974,138.356 181.560,138.152 181.942 C 137.404 183.341,135.654 187.512,134.930 189.621 C 134.519 190.821,133.066 194.521,131.639 198.004 C 131.161 199.171,130.970 199.663,129.544 203.393 C 128.956 204.930,128.234 206.727,127.937 207.385 C 127.641 208.044,127.133 209.391,126.807 210.379 C 126.274 211.996,125.550 213.777,123.965 217.364 C 123.674 218.024,122.872 220.000,122.183 221.756 C 121.495 223.513,120.758 225.262,120.546 225.643 C 120.333 226.025,120.160 226.611,120.160 226.946 C 120.160 227.281,120.000 227.868,119.805 228.249 C 118.285 231.217,116.152 236.778,116.388 237.159 C 116.519 237.372,124.152 237.525,134.657 237.525 L 152.699 237.525 153.255 236.228 C 153.560 235.514,154.143 234.223,154.550 233.358 C 154.956 232.494,155.289 231.548,155.289 231.257 C 155.289 230.966,155.458 230.416,155.664 230.035 C 155.870 229.653,156.522 227.994,157.113 226.347 C 157.704 224.701,158.412 222.814,158.687 222.156 C 158.963 221.497,159.408 220.329,159.678 219.561 C 159.947 218.792,160.617 216.996,161.166 215.569 C 162.105 213.127,162.986 210.805,163.667 208.982 C 163.831 208.543,164.508 206.836,165.172 205.190 C 165.836 203.543,166.599 201.567,166.869 200.798 C 167.138 200.030,167.607 198.835,167.911 198.143 C 168.215 197.451,168.463 196.763,168.463 196.615 C 168.463 196.173,170.957 189.796,171.703 188.329 C 171.897 187.948,172.056 187.436,172.056 187.191 C 172.056 186.947,172.301 186.181,172.600 185.489 C 172.900 184.798,173.457 183.423,173.839 182.435 C 174.221 181.447,174.694 180.327,174.891 179.946 C 175.088 179.564,175.250 178.978,175.250 178.643 C 175.250 178.036,175.373 177.733,176.552 175.449 C 176.892 174.790,177.709 172.725,178.368 170.858 C 179.986 166.274,181.560 162.048,182.011 161.078 C 182.215 160.639,182.611 159.561,182.891 158.683 C 183.171 157.804,183.527 156.906,183.682 156.687 C 183.837 156.467,184.361 155.120,184.846 153.693 C 185.330 152.265,185.885 150.927,186.077 150.719 C 186.270 150.510,186.427 150.090,186.427 149.785 C 186.427 148.186,190.000 146.373,192.709 146.598 C 196.110 146.880,197.510 148.749,200.419 156.886 C 200.693 157.655,201.136 158.822,201.403 159.481 C 201.669 160.140,202.200 161.487,202.582 162.475 C 202.963 163.463,203.437 164.583,203.634 164.965 C 203.831 165.346,203.992 165.932,203.992 166.267 C 203.992 166.882,204.107 167.169,205.322 169.593 C 205.688 170.325,205.988 171.150,205.988 171.428 C 205.988 171.901,206.762 173.769,207.611 175.344 C 207.816 175.725,207.984 176.284,207.984 176.586 C 207.984 177.167,210.087 182.551,210.773 183.727 C 210.996 184.108,211.178 184.695,211.178 185.030 C 211.178 185.365,211.339 185.952,211.536 186.333 C 211.733 186.714,212.168 187.745,212.503 188.623 C 214.457 193.748,216.120 197.605,216.376 197.605 C 216.537 197.605,217.453 196.572,218.410 195.309 C 219.368 194.047,221.231 191.653,222.551 189.989 C 224.964 186.946,226.181 185.364,227.713 183.279 C 228.170 182.658,229.621 180.764,230.938 179.070 C 232.255 177.376,233.834 175.329,234.445 174.522 C 235.057 173.714,235.775 172.780,236.042 172.446 C 239.552 168.046,240.034 167.225,239.621 166.353 C 239.223 165.510,238.581 164.031,237.376 161.178 C 237.075 160.464,236.153 158.174,235.327 156.088 C 234.502 154.002,233.601 151.756,233.327 151.098 C 233.053 150.439,232.607 149.271,232.336 148.503 C 232.065 147.735,231.416 146.158,230.892 144.999 C 230.368 143.840,229.941 142.763,229.941 142.604 C 229.942 142.445,229.472 141.148,228.897 139.721 C 228.321 138.293,227.715 136.766,227.549 136.327 C 227.383 135.888,226.875 134.721,226.421 133.733 C 225.967 132.745,224.953 130.140,224.169 127.944 C 222.858 124.276,222.043 122.280,221.113 120.464 C 220.918 120.083,220.758 119.446,220.758 119.047 C 220.758 118.649,220.609 118.153,220.427 117.944 C 220.245 117.736,219.329 115.589,218.390 113.174 C 217.452 110.758,216.343 108.021,215.927 107.090 C 215.510 106.159,215.170 105.304,215.170 105.190 C 215.170 105.075,214.832 104.220,214.419 103.289 C 214.005 102.358,213.445 100.968,213.174 100.200 C 212.903 99.431,212.459 98.263,212.187 97.605 C 211.916 96.946,211.195 95.150,210.585 93.613 C 207.654 86.223,203.750 81.745,199.002 80.325 C 192.888 78.497,191.562 78.394,187.566 79.436 M251.497 220.634 C 248.313 224.939,245.160 229.109,244.490 229.900 C 243.463 231.113,238.725 237.574,236.742 240.467 C 236.421 240.935,235.663 241.902,235.056 242.617 C 233.969 243.898,233.836 245.670,234.734 246.906 C 234.894 247.126,235.331 248.293,235.707 249.501 C 236.323 251.483,237.019 253.222,237.983 255.184 C 238.170 255.565,238.323 256.203,238.323 256.601 C 238.323 257.000,238.489 257.496,238.691 257.705 C 239.036 258.061,239.341 258.835,241.520 264.870 C 241.996 266.188,242.650 267.855,242.973 268.575 C 243.297 269.295,243.888 270.822,244.287 271.968 C 245.899 276.596,247.940 282.001,248.229 282.405 C 248.398 282.641,248.768 283.553,249.052 284.431 C 249.628 286.216,250.542 288.466,251.117 289.516 C 251.326 289.897,251.496 290.436,251.496 290.713 C 251.495 290.991,251.965 292.385,252.540 293.812 C 253.116 295.240,253.720 296.766,253.884 297.206 C 254.047 297.645,254.475 298.684,254.835 299.515 C 255.195 300.345,255.489 301.274,255.489 301.578 C 255.489 301.882,255.742 302.639,256.051 303.261 C 256.360 303.883,256.788 304.840,257.002 305.389 C 258.225 308.523,259.509 311.934,260.456 314.571 C 261.048 316.218,261.789 318.042,262.103 318.624 C 262.418 319.207,262.675 319.973,262.675 320.326 C 262.675 320.680,262.836 321.281,263.033 321.662 C 263.345 322.267,263.758 323.296,265.070 326.747 C 266.382 330.197,266.794 331.226,267.107 331.831 C 267.304 332.212,267.465 332.867,267.465 333.285 C 267.465 334.506,267.851 334.531,287.059 334.531 C 304.252 334.531,305.389 334.488,305.383 333.832 C 305.377 333.096,304.444 330.213,303.831 329.037 C 303.632 328.655,302.813 326.637,302.011 324.551 C 300.637 320.975,300.133 319.745,299.066 317.365 C 298.819 316.816,297.623 313.762,296.407 310.579 C 295.191 307.395,293.996 304.341,293.751 303.792 C 293.507 303.244,293.173 302.435,293.010 301.996 C 292.847 301.557,292.493 300.659,292.222 300.000 C 291.952 299.341,291.404 297.789,291.005 296.550 C 290.607 295.312,290.108 293.964,289.897 293.556 C 289.461 292.711,289.364 292.480,286.836 286.228 C 285.814 283.703,284.828 281.277,284.644 280.838 C 284.460 280.399,283.825 278.782,283.233 277.246 C 282.640 275.709,281.994 274.139,281.796 273.758 C 281.599 273.377,281.437 272.888,281.437 272.671 C 281.437 272.454,281.012 271.329,280.493 270.171 C 279.973 269.012,279.233 267.255,278.848 266.267 C 278.463 265.279,278.001 264.112,277.822 263.673 C 276.298 259.936,274.251 254.541,274.251 254.260 C 274.251 254.070,273.826 252.966,273.307 251.807 C 272.788 250.649,272.047 248.892,271.662 247.904 C 270.402 244.670,270.264 244.322,269.881 243.413 C 269.673 242.919,268.943 241.078,268.257 239.321 C 267.572 237.565,266.844 235.816,266.639 235.435 C 266.435 235.053,266.267 234.467,266.267 234.132 C 266.267 233.796,266.088 233.210,265.868 232.829 C 265.225 231.715,263.074 226.705,263.074 226.323 C 263.074 226.131,262.377 224.306,261.525 222.268 C 260.672 220.230,259.568 217.485,259.069 216.168 C 257.562 212.184,257.886 211.994,251.497 220.634 M100.982 275.749 C 100.333 277.231,99.622 278.755,99.402 279.136 C 99.182 279.518,99.002 280.029,99.002 280.274 C 99.002 280.518,98.755 281.284,98.453 281.976 C 98.152 282.667,97.239 284.940,96.425 287.026 C 95.610 289.112,94.709 291.357,94.421 292.016 C 94.133 292.675,93.681 293.842,93.416 294.611 C 93.150 295.379,92.779 296.367,92.589 296.806 C 92.400 297.246,90.787 301.287,89.005 305.788 C 85.355 315.007,84.752 316.474,84.212 317.460 C 84.003 317.841,83.832 318.427,83.832 318.762 C 83.832 319.098,83.654 319.684,83.437 320.065 C 82.986 320.856,77.844 333.941,77.844 334.297 C 77.844 334.426,86.380 334.531,96.813 334.531 L 115.781 334.531 116.345 333.234 C 116.655 332.520,117.563 330.140,118.363 327.944 C 119.649 324.411,120.090 323.239,121.364 319.960 C 121.534 319.521,122.037 318.263,122.481 317.166 C 122.924 316.068,123.684 314.002,124.168 312.575 C 124.652 311.148,125.206 309.809,125.399 309.601 C 125.591 309.392,125.749 308.932,125.749 308.578 C 125.749 308.224,126.201 306.996,126.754 305.850 C 127.306 304.704,128.221 302.380,128.786 300.686 C 129.351 298.991,130.042 297.066,130.321 296.407 C 131.048 294.695,131.913 292.457,133.176 289.022 C 133.781 287.375,134.423 285.857,134.603 285.649 C 134.783 285.440,134.930 284.892,134.930 284.431 C 134.930 283.970,135.077 283.422,135.257 283.214 C 135.437 283.005,136.077 281.487,136.680 279.840 C 137.283 278.194,138.034 276.256,138.349 275.535 C 139.511 272.877,140.780 273.054,120.542 273.054 L 102.162 273.054 100.982 275.749 M57.086 341.255 C 57.086 341.785,58.658 343.072,58.949 342.781 C 59.092 342.637,58.884 342.159,58.485 341.719 C 57.732 340.887,57.086 340.673,57.086 341.255 M75.449 357.685 C 75.449 357.904,75.719 358.084,76.048 358.084 C 76.377 358.084,76.647 357.904,76.647 357.685 C 76.647 357.465,76.377 357.285,76.048 357.285 C 75.719 357.285,75.449 357.465,75.449 357.685 M85.779 365.310 C 86.275 365.771,86.789 366.038,86.923 365.904 C 87.058 365.770,86.821 365.399,86.398 365.078 C 85.223 364.189,84.762 364.362,85.779 365.310 " stroke="none" fill="#151d44" fill-rule="evenodd"></path><path id="path1" d="M328.543 69.541 C 325.637 70.179,323.319 72.162,320.136 76.737 C 317.937 79.898,317.441 80.097,315.418 78.632 C 311.607 75.872,308.192 77.227,303.662 83.297 C 302.213 85.238,300.682 87.275,300.260 87.824 C 299.837 88.373,298.497 90.170,297.281 91.816 C 296.065 93.463,294.527 95.529,293.864 96.407 C 292.493 98.222,284.791 108.665,283.706 110.180 C 281.581 113.146,279.718 115.671,276.846 119.472 C 275.090 121.797,272.126 125.806,270.259 128.381 C 268.393 130.956,266.361 133.653,265.745 134.376 C 264.230 136.149,264.331 138.641,265.967 139.858 C 267.482 140.985,268.825 140.442,270.769 137.919 C 276.318 130.716,276.248 130.830,276.248 129.086 C 276.248 127.923,276.531 127.060,277.170 126.278 C 277.678 125.657,279.233 123.533,280.626 121.557 C 282.019 119.581,283.369 117.784,283.625 117.565 C 283.882 117.345,284.438 116.627,284.860 115.968 C 285.283 115.309,287.784 111.876,290.419 108.339 C 293.054 104.802,295.928 100.878,296.806 99.620 C 297.685 98.361,299.661 95.713,301.198 93.734 C 302.735 91.756,304.418 89.482,304.939 88.681 C 307.302 85.048,309.847 83.917,311.515 85.760 C 312.509 86.858,312.383 87.208,309.681 90.877 C 308.308 92.740,306.826 94.765,306.387 95.376 C 305.238 96.975,303.116 99.797,301.962 101.262 C 300.600 102.988,299.288 104.810,297.653 107.241 C 296.894 108.370,296.084 109.411,295.851 109.554 C 295.619 109.698,294.753 110.841,293.928 112.093 C 293.102 113.346,291.256 115.892,289.826 117.750 C 288.396 119.608,286.776 121.792,286.228 122.602 C 285.416 123.799,282.929 127.140,281.358 129.142 C 281.186 129.361,280.060 130.888,278.855 132.535 C 277.650 134.182,276.202 136.102,275.636 136.802 C 275.071 137.502,274.152 138.747,273.594 139.569 C 273.036 140.391,271.833 142.000,270.921 143.144 C 270.008 144.289,268.543 146.251,267.665 147.506 C 266.786 148.761,263.841 152.777,261.119 156.431 C 258.397 160.084,255.210 164.421,254.035 166.068 C 252.231 168.599,249.123 172.801,247.983 174.251 C 247.079 175.403,243.995 179.504,243.219 180.589 C 241.431 183.088,240.880 183.829,238.822 186.507 C 237.670 188.006,236.727 189.351,236.727 189.493 C 236.727 189.636,236.446 190.038,236.104 190.386 C 235.520 190.979,234.809 191.929,230.617 197.726 C 229.696 199.000,228.313 200.821,227.545 201.772 C 226.776 202.723,225.160 204.899,223.952 206.608 C 222.745 208.317,221.302 210.269,220.747 210.945 C 220.192 211.622,219.204 212.984,218.551 213.972 C 217.899 214.960,216.958 216.218,216.460 216.766 C 215.546 217.775,214.975 219.237,214.356 222.156 C 213.688 225.307,212.968 227.883,212.674 228.177 C 212.510 228.342,212.375 228.913,212.375 229.447 C 212.375 229.981,212.121 230.984,211.810 231.676 C 211.499 232.368,211.148 233.473,211.029 234.132 C 210.606 236.488,210.038 238.959,209.391 241.264 C 208.291 245.180,209.234 245.674,213.109 243.214 C 215.417 241.749,218.349 239.927,220.353 238.713 C 220.905 238.379,222.345 237.470,223.553 236.693 C 224.760 235.916,226.557 234.842,227.545 234.307 C 228.533 233.771,229.431 233.225,229.541 233.094 C 229.651 232.962,230.477 232.393,231.376 231.830 C 232.276 231.266,233.672 229.810,234.480 228.594 C 235.287 227.378,236.113 226.280,236.316 226.155 C 236.813 225.848,239.122 222.404,239.122 221.969 C 239.122 221.779,239.262 221.564,239.433 221.490 C 239.873 221.303,255.668 200.292,258.141 196.607 C 258.730 195.729,259.913 194.112,260.769 193.014 C 261.625 191.916,263.838 188.952,265.687 186.427 C 267.536 183.902,269.589 181.118,270.249 180.240 C 270.909 179.361,273.439 175.948,275.870 172.655 C 278.301 169.361,280.518 166.386,280.797 166.042 C 282.357 164.115,284.929 160.602,285.566 159.526 C 285.970 158.842,286.705 157.834,287.200 157.285 C 287.694 156.737,289.249 154.712,290.656 152.786 C 294.394 147.669,295.360 146.354,295.704 145.908 C 295.873 145.689,297.265 143.802,298.796 141.717 C 300.327 139.631,301.738 137.812,301.931 137.674 C 302.125 137.537,302.667 136.789,303.137 136.012 C 303.873 134.798,310.579 125.674,311.776 124.260 C 312.004 123.990,312.731 123.002,313.391 122.065 C 315.463 119.121,317.111 116.870,319.573 113.620 C 320.884 111.889,322.495 109.704,323.154 108.764 C 323.812 107.824,325.429 105.675,326.747 103.990 C 328.064 102.304,329.473 100.358,329.877 99.664 C 330.282 98.971,331.020 97.954,331.518 97.405 C 332.016 96.856,333.647 94.701,335.142 92.615 C 336.637 90.529,338.269 88.373,338.769 87.824 C 346.302 79.555,339.373 67.167,328.543 69.541 M9.448 135.196 C 9.051 135.593,9.127 136.527,9.556 136.527 C 9.762 136.527,9.903 136.168,9.870 135.729 C 9.802 134.826,9.809 134.835,9.448 135.196 M85.208 246.818 C 85.101 247.098,85.061 250.916,85.121 255.301 L 85.230 263.273 138.210 263.375 L 191.190 263.476 193.953 260.580 C 199.265 255.013,206.387 247.052,206.387 246.681 C 206.387 246.051,85.450 246.188,85.208 246.818 " stroke="none" fill="#d44506" fill-rule="evenodd"></path><path id="path2" d="M176.347 0.274 C 174.207 0.359,172.455 0.601,172.455 0.813 C 172.455 1.024,171.198 1.198,169.661 1.198 C 168.064 1.198,166.866 1.369,166.866 1.597 C 166.866 1.816,165.968 1.996,164.870 1.996 C 163.772 1.996,162.874 2.176,162.874 2.395 C 162.874 2.615,161.897 2.794,160.702 2.794 C 159.508 2.794,158.419 2.974,158.283 3.194 C 158.148 3.413,157.329 3.593,156.463 3.593 C 155.598 3.593,154.890 3.772,154.890 3.992 C 154.890 4.212,154.172 4.391,153.293 4.391 C 152.415 4.391,151.697 4.571,151.697 4.790 C 151.697 5.010,150.978 5.190,150.100 5.190 C 149.222 5.190,148.503 5.369,148.503 5.589 C 148.503 5.808,147.784 5.988,146.906 5.988 C 146.028 5.988,145.309 6.168,145.309 6.387 C 145.309 6.607,144.691 6.786,143.936 6.786 C 143.180 6.786,142.451 6.966,142.315 7.186 C 142.180 7.405,141.461 7.585,140.719 7.585 C 139.976 7.585,139.257 7.764,139.122 7.984 C 138.986 8.204,138.347 8.383,137.701 8.383 C 137.055 8.383,136.527 8.563,136.527 8.782 C 136.527 9.002,135.988 9.182,135.329 9.182 C 134.671 9.182,134.132 9.361,134.132 9.581 C 134.132 9.800,133.593 9.980,132.934 9.980 C 132.275 9.980,131.737 10.160,131.737 10.379 C 131.737 10.599,131.377 10.778,130.938 10.778 C 130.499 10.778,130.140 10.958,130.140 11.178 C 130.140 11.397,129.691 11.577,129.142 11.577 C 128.593 11.577,128.144 11.756,128.144 11.976 C 128.144 12.196,127.695 12.375,127.146 12.375 C 126.597 12.375,126.148 12.555,126.148 12.774 C 126.148 12.994,125.788 13.174,125.349 13.174 C 124.910 13.174,124.551 13.353,124.551 13.573 C 124.551 13.792,124.012 13.972,123.353 13.972 C 122.695 13.972,122.156 14.152,122.156 14.371 C 122.156 14.591,121.796 14.770,121.357 14.770 C 120.918 14.770,120.559 14.950,120.559 15.170 C 120.559 15.389,120.200 15.569,119.760 15.569 C 119.321 15.569,118.962 15.749,118.962 15.968 C 118.962 16.188,118.423 16.367,117.764 16.367 C 117.106 16.367,116.567 16.547,116.567 16.766 C 116.567 16.986,116.208 17.166,115.768 17.166 C 115.329 17.166,114.970 17.345,114.970 17.565 C 114.970 17.784,114.611 17.964,114.172 17.964 C 113.733 17.964,113.373 18.144,113.373 18.363 C 113.373 18.583,113.014 18.762,112.575 18.762 C 112.136 18.762,111.776 18.942,111.776 19.162 C 111.776 19.381,111.417 19.561,110.978 19.561 C 110.539 19.561,110.180 19.741,110.180 19.960 C 110.180 20.180,109.910 20.359,109.581 20.359 C 109.251 20.359,108.982 20.539,108.982 20.758 C 108.982 20.978,108.633 21.158,108.207 21.158 C 107.781 21.158,107.321 21.337,107.186 21.557 C 107.050 21.776,106.590 21.956,106.164 21.956 C 105.738 21.956,105.389 22.136,105.389 22.355 C 105.389 22.575,105.030 22.754,104.591 22.754 C 104.152 22.754,103.791 22.889,103.789 23.054 C 103.786 23.390,101.872 24.351,101.206 24.351 C 100.969 24.351,100.516 24.711,100.200 25.150 C 99.883 25.589,99.344 25.948,99.002 25.948 C 98.660 25.948,98.121 26.307,97.804 26.747 C 97.488 27.186,96.997 27.545,96.713 27.545 C 96.086 27.545,94.732 28.297,93.658 29.242 C 93.221 29.626,92.629 29.940,92.343 29.940 C 92.057 29.940,91.599 30.299,91.325 30.739 C 91.050 31.178,90.500 31.537,90.102 31.537 C 89.704 31.537,88.718 31.986,87.910 32.535 C 87.102 33.084,86.586 33.533,86.762 33.533 C 86.939 33.533,86.814 33.802,86.484 34.132 C 86.155 34.461,85.690 34.731,85.452 34.731 C 84.785 34.731,83.302 35.650,82.717 36.427 C 82.427 36.811,82.010 37.126,81.790 37.126 C 81.140 37.126,77.108 40.458,76.840 41.218 C 76.699 41.616,76.188 41.916,75.649 41.916 C 75.065 41.916,74.611 42.212,74.459 42.689 C 74.324 43.114,73.818 43.519,73.334 43.588 C 72.783 43.666,72.476 43.973,72.511 44.411 C 72.547 44.864,72.282 45.110,71.759 45.110 C 70.981 45.110,69.461 46.471,69.461 47.167 C 69.461 47.353,69.135 47.505,68.737 47.505 C 67.987 47.505,65.745 49.569,65.850 50.162 C 65.883 50.347,65.611 50.561,65.245 50.637 C 64.319 50.829,59.541 55.679,59.078 56.897 C 58.868 57.448,58.247 58.070,57.697 58.279 C 56.510 58.730,50.702 64.436,50.690 65.163 C 50.685 65.441,49.967 66.174,49.093 66.792 C 48.220 67.410,47.505 68.080,47.505 68.280 C 47.505 68.480,46.607 69.586,45.509 70.737 C 44.411 71.888,43.513 73.020,43.513 73.253 C 43.513 73.486,43.154 73.935,42.715 74.251 C 42.275 74.568,41.916 75.017,41.916 75.250 C 41.916 75.482,41.557 75.931,41.118 76.248 C 40.679 76.564,40.319 77.053,40.319 77.334 C 40.319 77.615,40.140 77.844,39.920 77.844 C 39.701 77.844,39.521 78.111,39.521 78.436 C 39.521 78.984,38.706 80.040,36.427 82.448 C 35.933 82.970,35.529 83.664,35.529 83.991 C 35.529 84.318,35.215 84.820,34.830 85.107 C 34.446 85.394,33.877 86.123,33.565 86.727 C 33.254 87.330,32.850 87.824,32.667 87.824 C 32.485 87.824,32.335 88.021,32.335 88.262 C 32.335 88.502,31.997 89.176,31.584 89.759 C 30.405 91.421,29.142 93.788,29.142 94.335 C 29.142 94.609,28.782 95.093,28.343 95.409 C 27.904 95.726,27.545 96.304,27.545 96.695 C 27.545 97.086,27.365 97.405,27.146 97.405 C 26.926 97.405,26.747 97.725,26.747 98.115 C 26.747 98.506,26.387 99.085,25.948 99.401 C 25.479 99.739,25.150 100.435,25.150 101.086 C 25.150 101.929,24.958 102.196,24.351 102.196 C 23.819 102.196,23.553 102.462,23.553 102.994 C 23.553 103.433,23.373 103.792,23.154 103.792 C 22.934 103.792,22.754 104.152,22.754 104.591 C 22.754 105.030,22.575 105.389,22.355 105.389 C 22.136 105.389,21.956 105.679,21.956 106.033 C 21.956 106.748,20.333 109.903,19.858 110.114 C 19.692 110.188,19.648 110.398,19.762 110.581 C 19.875 110.764,19.683 111.198,19.336 111.545 C 18.916 111.965,18.869 112.176,19.194 112.176 C 19.463 112.176,19.296 112.511,18.824 112.921 C 18.351 113.331,17.964 113.960,17.964 114.318 C 17.964 114.677,17.784 114.970,17.565 114.970 C 17.345 114.970,17.166 115.329,17.166 115.768 C 17.166 116.208,16.986 116.567,16.766 116.567 C 16.547 116.567,16.367 117.106,16.367 117.764 C 16.367 118.423,16.188 118.962,15.968 118.962 C 15.749 118.962,15.569 119.501,15.569 120.160 C 15.569 120.818,15.389 121.357,15.170 121.357 C 14.950 121.357,14.770 121.717,14.770 122.156 C 14.770 122.595,14.591 122.954,14.371 122.954 C 14.152 122.954,13.972 123.313,13.972 123.752 C 13.972 124.192,13.792 124.551,13.573 124.551 C 13.353 124.551,13.174 125.090,13.174 125.749 C 13.174 126.407,12.994 126.946,12.774 126.946 C 12.555 126.946,12.375 127.403,12.375 127.961 C 12.375 128.519,12.016 129.361,11.577 129.832 C 11.138 130.304,10.778 131.090,10.778 131.579 C 10.778 132.068,10.554 132.560,10.279 132.671 C 9.904 132.823,9.928 132.979,10.379 133.303 C 10.860 133.648,10.876 133.799,10.459 134.068 C 10.174 134.252,9.913 134.836,9.879 135.365 C 9.846 135.894,9.720 136.417,9.600 136.527 C 9.129 136.957,8.383 138.543,8.383 139.116 C 8.383 139.449,8.204 139.721,7.984 139.721 C 7.764 139.721,7.585 140.439,7.585 141.317 C 7.585 142.196,7.405 142.914,7.186 142.914 C 6.966 142.914,6.786 143.633,6.786 144.511 C 6.786 145.389,6.607 146.108,6.387 146.108 C 6.168 146.108,5.988 146.647,5.988 147.305 C 5.988 147.964,5.808 148.503,5.589 148.503 C 5.369 148.503,5.190 149.222,5.190 150.100 C 5.190 150.978,5.010 151.697,4.790 151.697 C 4.571 151.697,4.391 152.595,4.391 153.693 C 4.391 154.790,4.212 155.689,3.992 155.689 C 3.772 155.689,3.593 156.587,3.593 157.685 C 3.593 158.782,3.413 159.681,3.194 159.681 C 2.972 159.681,2.794 160.745,2.794 162.076 C 2.794 163.407,2.617 164.471,2.395 164.471 C 2.173 164.471,1.996 165.536,1.996 166.866 C 1.996 168.197,1.819 169.261,1.597 169.261 C 1.369 169.261,1.198 170.448,1.198 172.023 C 1.198 173.877,1.034 174.838,0.699 174.950 C -0.032 175.194,-0.032 224.008,0.699 224.251 C 1.034 224.363,1.198 225.325,1.198 227.179 C 1.198 228.754,1.369 229.940,1.597 229.940 C 1.819 229.940,1.996 231.005,1.996 232.335 C 1.996 233.666,2.173 234.731,2.395 234.731 C 2.617 234.731,2.794 235.795,2.794 237.126 C 2.794 238.456,2.972 239.521,3.194 239.521 C 3.413 239.521,3.593 240.419,3.593 241.517 C 3.593 242.615,3.772 243.513,3.992 243.513 C 4.212 243.513,4.391 244.411,4.391 245.509 C 4.391 246.607,4.571 247.505,4.790 247.505 C 5.010 247.505,5.190 248.224,5.190 249.102 C 5.190 249.980,5.369 250.699,5.589 250.699 C 5.808 250.699,5.988 251.238,5.988 251.896 C 5.988 252.555,6.168 253.094,6.387 253.094 C 6.607 253.094,6.786 253.812,6.786 254.691 C 6.786 255.569,6.966 256.287,7.186 256.287 C 7.405 256.287,7.585 257.006,7.585 257.884 C 7.585 258.762,7.764 259.481,7.984 259.481 C 8.204 259.481,8.383 259.753,8.383 260.085 C 8.383 260.658,9.129 262.245,9.600 262.675 C 9.720 262.784,9.846 263.307,9.879 263.836 C 9.913 264.365,10.174 264.949,10.459 265.134 C 10.876 265.403,10.860 265.554,10.379 265.899 C 9.928 266.222,9.904 266.378,10.279 266.531 C 10.554 266.642,10.778 267.133,10.778 267.623 C 10.778 268.112,11.138 268.898,11.577 269.369 C 12.016 269.840,12.375 270.683,12.375 271.241 C 12.375 271.799,12.555 272.255,12.774 272.255 C 12.994 272.255,13.174 272.794,13.174 273.453 C 13.174 274.112,13.353 274.651,13.573 274.651 C 13.792 274.651,13.972 275.010,13.972 275.449 C 13.972 275.888,14.152 276.248,14.371 276.248 C 14.591 276.248,14.770 276.607,14.770 277.046 C 14.770 277.485,14.950 277.844,15.170 277.844 C 15.389 277.844,15.569 278.383,15.569 279.042 C 15.569 279.701,15.749 280.240,15.968 280.240 C 16.188 280.240,16.367 280.778,16.367 281.437 C 16.367 282.096,16.547 282.635,16.766 282.635 C 16.986 282.635,17.166 282.994,17.166 283.433 C 17.166 283.872,17.345 284.232,17.565 284.232 C 17.784 284.232,17.964 284.551,17.964 284.942 C 17.964 285.332,18.323 285.911,18.762 286.228 C 19.202 286.544,19.561 287.104,19.561 287.473 C 19.561 287.841,19.999 288.914,20.535 289.857 C 21.070 290.800,21.419 291.716,21.310 291.893 C 21.200 292.071,21.301 292.216,21.533 292.216 C 21.766 292.216,21.956 292.575,21.956 293.014 C 21.956 293.453,22.136 293.812,22.355 293.812 C 22.575 293.812,22.754 294.172,22.754 294.611 C 22.754 295.050,22.934 295.409,23.154 295.409 C 23.373 295.409,23.553 295.768,23.553 296.208 C 23.553 296.740,23.819 297.006,24.351 297.006 C 24.972 297.006,25.150 297.272,25.150 298.200 C 25.150 298.962,25.439 299.575,25.948 299.893 C 26.387 300.167,26.747 300.590,26.747 300.833 C 26.747 301.617,28.015 303.845,28.587 304.064 C 28.892 304.181,29.142 304.522,29.142 304.821 C 29.142 305.408,30.369 307.731,31.584 309.443 C 31.997 310.026,32.335 310.617,32.335 310.757 C 32.335 310.897,32.695 311.397,33.134 311.868 C 33.573 312.340,33.932 312.949,33.932 313.222 C 33.932 313.495,34.291 313.833,34.731 313.972 C 35.170 314.111,35.529 314.570,35.529 314.990 C 35.529 315.694,36.245 316.663,38.623 319.174 C 39.117 319.696,39.521 320.401,39.521 320.740 C 39.521 321.080,39.701 321.357,39.920 321.357 C 40.140 321.357,40.319 321.587,40.319 321.868 C 40.319 322.149,40.679 322.638,41.118 322.954 C 41.557 323.271,41.916 323.720,41.916 323.952 C 41.916 324.184,42.275 324.634,42.715 324.950 C 43.154 325.267,43.513 325.726,43.513 325.970 C 43.513 326.215,44.007 326.889,44.611 327.468 C 46.427 329.211,47.505 330.488,47.505 330.898 C 47.505 331.111,48.220 331.791,49.093 332.409 C 49.967 333.027,50.685 333.760,50.690 334.038 C 50.702 334.758,56.270 340.222,57.594 340.813 C 58.201 341.085,58.870 341.757,59.078 342.306 C 59.558 343.568,64.339 348.381,65.295 348.565 C 65.689 348.641,65.961 348.854,65.901 349.039 C 65.710 349.622,67.977 351.697,68.804 351.697 C 69.239 351.697,69.485 351.805,69.352 351.939 C 69.013 352.278,70.899 354.092,71.592 354.092 C 71.906 354.092,72.256 354.451,72.371 354.890 C 72.493 355.357,72.916 355.689,73.389 355.689 C 73.847 355.689,74.308 356.035,74.451 356.487 C 74.610 356.989,75.055 357.285,75.649 357.285 C 76.188 357.285,76.699 357.585,76.840 357.984 C 77.108 358.744,81.140 362.076,81.790 362.076 C 82.010 362.076,82.427 362.390,82.717 362.774 C 83.286 363.529,84.779 364.471,85.408 364.471 C 85.621 364.471,86.529 365.190,87.425 366.068 C 88.337 366.962,89.444 367.665,89.940 367.665 C 90.427 367.665,91.050 368.024,91.325 368.463 C 91.599 368.902,92.057 369.261,92.343 369.261 C 92.629 369.261,93.221 369.576,93.658 369.960 C 94.732 370.905,96.086 371.657,96.713 371.657 C 96.997 371.657,97.488 372.016,97.804 372.455 C 98.121 372.894,98.660 373.253,99.002 373.253 C 99.344 373.253,99.883 373.613,100.200 374.052 C 100.516 374.491,101.151 374.850,101.610 374.850 C 102.069 374.850,102.830 375.210,103.301 375.649 C 103.773 376.088,104.435 376.447,104.774 376.447 C 105.112 376.447,105.389 376.627,105.389 376.846 C 105.389 377.066,105.749 377.246,106.188 377.246 C 106.627 377.246,106.986 377.425,106.986 377.645 C 106.986 377.864,107.220 378.044,107.505 378.044 C 108.240 378.044,110.173 378.983,110.177 379.341 C 110.178 379.506,110.539 379.641,110.978 379.641 C 111.417 379.641,111.776 379.820,111.776 380.040 C 111.776 380.259,112.136 380.439,112.575 380.439 C 113.014 380.439,113.373 380.619,113.373 380.838 C 113.373 381.058,113.733 381.238,114.172 381.238 C 114.611 381.238,114.970 381.417,114.970 381.637 C 114.970 381.856,115.329 382.036,115.768 382.036 C 116.208 382.036,116.567 382.216,116.567 382.435 C 116.567 382.655,117.106 382.834,117.764 382.834 C 118.423 382.834,118.962 383.014,118.962 383.234 C 118.962 383.453,119.321 383.633,119.760 383.633 C 120.200 383.633,120.559 383.812,120.559 384.032 C 120.559 384.251,120.918 384.431,121.357 384.431 C 121.796 384.431,122.156 384.611,122.156 384.830 C 122.156 385.050,122.695 385.230,123.353 385.230 C 124.012 385.230,124.551 385.409,124.551 385.629 C 124.551 385.848,124.910 386.028,125.349 386.028 C 125.788 386.028,126.148 386.208,126.148 386.427 C 126.148 386.647,126.586 386.826,127.122 386.826 C 127.658 386.826,128.208 387.006,128.343 387.226 C 128.479 387.445,128.939 387.625,129.365 387.625 C 129.791 387.625,130.140 387.804,130.140 388.024 C 130.140 388.244,130.499 388.423,130.938 388.423 C 131.377 388.423,131.737 388.603,131.737 388.822 C 131.737 389.042,132.275 389.222,132.934 389.222 C 133.593 389.222,134.132 389.401,134.132 389.621 C 134.132 389.840,134.671 390.020,135.329 390.020 C 135.988 390.020,136.527 390.200,136.527 390.419 C 136.527 390.639,137.055 390.818,137.701 390.818 C 138.347 390.818,138.986 390.998,139.122 391.218 C 139.257 391.437,139.987 391.617,140.742 391.617 C 141.498 391.617,142.116 391.796,142.116 392.016 C 142.116 392.236,142.834 392.415,143.713 392.415 C 144.591 392.415,145.309 392.595,145.309 392.814 C 145.309 393.034,146.028 393.214,146.906 393.214 C 147.784 393.214,148.503 393.393,148.503 393.613 C 148.503 393.832,149.222 394.012,150.100 394.012 C 150.978 394.012,151.697 394.192,151.697 394.411 C 151.697 394.631,152.415 394.810,153.293 394.810 C 154.172 394.810,154.890 394.972,154.890 395.169 C 154.890 395.516,156.350 395.786,160.778 396.258 C 161.931 396.381,162.874 396.644,162.874 396.843 C 162.874 397.043,163.772 397.206,164.870 397.206 C 165.968 397.206,166.866 397.385,166.866 397.605 C 166.866 397.836,168.138 398.004,169.884 398.004 C 171.548 398.004,172.803 398.164,172.682 398.360 C 172.298 398.980,187.492 399.312,207.706 399.126 C 221.148 399.002,227.293 398.811,227.478 398.512 C 227.626 398.273,229.003 397.976,230.540 397.853 C 235.947 397.418,237.924 397.128,237.924 396.769 C 237.924 396.570,238.822 396.407,239.920 396.407 C 241.018 396.407,241.916 396.228,241.916 396.008 C 241.916 395.788,242.814 395.609,243.912 395.609 C 245.010 395.609,245.908 395.429,245.908 395.210 C 245.908 394.990,246.627 394.810,247.505 394.810 C 248.383 394.810,249.102 394.631,249.102 394.411 C 249.102 394.192,249.820 394.012,250.699 394.012 C 251.577 394.012,252.295 393.832,252.295 393.613 C 252.295 393.393,252.924 393.214,253.693 393.214 C 254.461 393.214,255.090 393.034,255.090 392.814 C 255.090 392.595,255.719 392.415,256.487 392.415 C 257.255 392.415,257.884 392.236,257.884 392.016 C 257.884 391.796,258.603 391.617,259.481 391.617 C 260.359 391.617,261.078 391.437,261.078 391.218 C 261.078 390.998,261.617 390.818,262.275 390.818 C 262.934 390.818,263.473 390.639,263.473 390.419 C 263.473 390.200,264.012 390.020,264.671 390.020 C 265.329 390.020,265.868 389.863,265.868 389.671 C 265.868 389.479,266.386 389.218,267.018 389.091 C 267.650 388.965,268.475 388.554,268.850 388.178 C 269.427 387.602,269.590 387.584,269.897 388.059 C 270.126 388.415,270.370 388.476,270.559 388.224 C 271.001 387.634,272.555 386.826,273.248 386.826 C 273.580 386.826,273.852 386.647,273.852 386.427 C 273.852 386.208,274.391 386.028,275.050 386.028 C 275.709 386.028,276.248 385.848,276.248 385.629 C 276.248 385.409,276.607 385.230,277.046 385.230 C 277.485 385.230,277.844 385.050,277.844 384.830 C 277.844 384.611,278.204 384.431,278.643 384.431 C 279.082 384.431,279.441 384.251,279.441 384.032 C 279.441 383.812,279.980 383.633,280.639 383.633 C 281.297 383.633,281.836 383.453,281.836 383.234 C 281.836 383.014,282.196 382.834,282.635 382.834 C 283.074 382.834,283.433 382.655,283.433 382.435 C 283.433 382.216,283.872 382.036,284.408 382.036 C 284.944 382.036,285.493 381.856,285.629 381.637 C 285.764 381.417,286.224 381.238,286.650 381.238 C 287.076 381.238,287.425 381.058,287.425 380.838 C 287.425 380.619,287.784 380.439,288.224 380.439 C 288.663 380.439,289.022 380.259,289.022 380.040 C 289.022 379.820,289.381 379.641,289.820 379.641 C 290.259 379.641,290.619 379.461,290.619 379.242 C 290.619 379.022,290.978 378.842,291.417 378.842 C 291.856 378.842,292.216 378.663,292.216 378.443 C 292.216 378.224,292.575 378.044,293.014 378.044 C 293.453 378.044,293.812 377.864,293.812 377.645 C 293.812 377.425,294.172 377.246,294.611 377.246 C 295.050 377.246,295.409 377.066,295.409 376.846 C 295.409 376.627,295.768 376.447,296.208 376.447 C 296.722 376.447,297.006 376.181,297.006 375.699 C 297.006 375.152,297.296 374.950,298.080 374.950 C 298.693 374.950,299.448 374.586,299.840 374.102 C 300.218 373.635,300.692 373.253,300.895 373.253 C 301.401 373.253,304.877 371.472,305.708 370.786 C 306.081 370.477,306.881 369.978,307.485 369.676 C 308.089 369.374,308.583 368.977,308.583 368.795 C 308.583 368.612,308.851 368.463,309.178 368.463 C 309.506 368.463,309.998 368.104,310.272 367.665 C 310.547 367.226,311.087 366.866,311.473 366.866 C 311.860 366.866,312.176 366.687,312.176 366.467 C 312.176 366.248,312.535 366.068,312.974 366.068 C 313.413 366.068,313.772 365.919,313.772 365.736 C 313.772 365.554,314.266 365.149,314.870 364.838 C 315.474 364.526,316.316 363.957,316.742 363.573 C 317.168 363.189,317.739 362.874,318.012 362.874 C 318.286 362.874,318.623 362.515,318.762 362.076 C 318.902 361.637,319.228 361.277,319.488 361.276 C 319.748 361.275,320.534 360.736,321.236 360.078 C 321.938 359.420,322.751 358.882,323.044 358.882 C 323.337 358.882,323.835 358.523,324.152 358.084 C 324.468 357.645,324.917 357.285,325.150 357.285 C 325.382 357.285,325.831 356.926,326.148 356.487 C 326.464 356.048,326.887 355.689,327.087 355.689 C 327.287 355.689,327.742 355.357,328.097 354.953 C 328.452 354.548,328.957 354.144,329.219 354.054 C 330.714 353.545,348.503 336.197,348.503 335.249 C 348.503 334.854,348.664 334.531,348.860 334.531 C 349.493 334.531,351.697 332.235,351.697 331.576 C 351.697 331.225,351.911 330.938,352.174 330.938 C 352.716 330.938,354.890 328.962,354.890 328.469 C 354.890 328.291,355.609 327.382,356.487 326.450 C 357.365 325.518,358.084 324.569,358.084 324.342 C 358.084 324.115,358.443 323.670,358.882 323.353 C 359.321 323.037,359.681 322.548,359.681 322.267 C 359.681 321.986,359.860 321.756,360.080 321.756 C 360.299 321.756,360.479 321.387,360.479 320.935 C 360.479 320.482,360.632 320.207,360.818 320.322 C 361.005 320.437,361.409 320.044,361.716 319.447 C 362.024 318.851,362.590 318.129,362.974 317.842 C 363.358 317.555,363.673 316.983,363.673 316.571 C 363.673 316.159,364.032 315.708,364.471 315.569 C 364.910 315.429,365.269 315.092,365.269 314.819 C 365.269 314.546,365.584 313.974,365.968 313.548 C 366.352 313.123,366.922 312.280,367.233 311.677 C 367.545 311.073,367.949 310.579,368.131 310.579 C 368.314 310.579,368.463 310.387,368.463 310.152 C 368.463 309.917,369.002 308.941,369.661 307.984 C 370.319 307.027,370.858 306.051,370.858 305.816 C 370.858 305.581,371.010 305.389,371.195 305.389 C 371.380 305.389,371.964 304.536,372.492 303.493 C 373.021 302.450,373.588 301.537,373.752 301.464 C 373.917 301.391,374.052 300.978,374.052 300.547 C 374.052 300.117,374.499 299.317,375.046 298.770 C 375.592 298.224,376.160 297.289,376.307 296.693 C 376.454 296.096,376.905 295.318,377.309 294.963 C 377.713 294.608,378.044 294.024,378.044 293.666 C 378.044 293.307,378.224 293.014,378.443 293.014 C 378.663 293.014,378.842 292.655,378.842 292.216 C 378.842 291.776,379.022 291.417,379.242 291.417 C 379.461 291.417,379.641 291.058,379.641 290.619 C 379.641 290.180,379.820 289.820,380.040 289.820 C 380.259 289.820,380.439 289.461,380.439 289.022 C 380.439 288.583,380.619 288.224,380.838 288.224 C 381.058 288.224,381.238 287.864,381.238 287.425 C 381.238 286.986,381.417 286.627,381.637 286.627 C 381.856 286.627,382.036 286.267,382.036 285.828 C 382.036 285.389,382.216 285.030,382.435 285.030 C 382.655 285.030,382.834 284.491,382.834 283.832 C 382.834 283.174,383.014 282.635,383.234 282.635 C 383.453 282.635,383.633 282.275,383.633 281.836 C 383.633 281.397,383.812 281.038,384.032 281.038 C 384.251 281.038,384.431 280.499,384.431 279.840 C 384.431 279.182,384.611 278.643,384.830 278.643 C 385.050 278.643,385.230 278.283,385.230 277.844 C 385.230 277.405,385.409 277.046,385.629 277.046 C 385.848 277.046,386.028 276.687,386.028 276.248 C 386.028 275.808,386.208 275.449,386.427 275.449 C 386.647 275.449,386.826 274.910,386.826 274.251 C 386.826 273.593,387.006 273.054,387.226 273.054 C 387.445 273.054,387.625 272.555,387.625 271.944 C 387.625 271.293,387.954 270.597,388.423 270.259 C 388.937 269.889,389.222 269.226,389.222 268.399 C 389.222 267.691,389.401 267.002,389.621 266.866 C 389.840 266.731,390.020 266.271,390.020 265.845 C 390.020 265.419,390.200 265.070,390.419 265.070 C 390.639 265.070,390.818 264.531,390.818 263.872 C 390.818 263.214,390.998 262.675,391.218 262.675 C 391.437 262.675,391.617 262.136,391.617 261.477 C 391.617 260.788,391.829 260.277,392.116 260.273 C 392.448 260.269,392.415 260.138,392.016 259.880 C 391.617 259.622,391.583 259.491,391.916 259.487 C 392.191 259.484,392.415 259.122,392.415 258.683 C 392.415 258.244,392.595 257.884,392.814 257.884 C 393.034 257.884,393.214 257.166,393.214 256.287 C 393.214 255.409,393.393 254.691,393.613 254.691 C 393.832 254.691,394.012 253.972,394.012 253.094 C 394.012 252.216,394.192 251.497,394.411 251.497 C 394.631 251.497,394.810 250.778,394.810 249.900 C 394.810 249.022,394.990 248.303,395.210 248.303 C 395.429 248.303,395.609 247.585,395.609 246.707 C 395.609 245.828,395.788 245.110,396.008 245.110 C 396.228 245.110,396.407 244.402,396.407 243.537 C 396.407 242.671,396.587 241.852,396.806 241.717 C 397.026 241.581,397.206 240.492,397.206 239.298 C 397.206 238.103,397.385 237.126,397.605 237.126 C 397.827 237.126,398.004 236.061,398.004 234.731 C 398.004 233.400,398.181 232.335,398.403 232.335 C 398.631 232.335,398.802 231.149,398.802 229.574 C 398.802 227.720,398.966 226.758,399.301 226.647 C 400.032 226.403,400.032 172.799,399.301 172.555 C 398.966 172.443,398.802 171.481,398.802 169.627 C 398.802 168.053,398.631 166.866,398.403 166.866 C 398.181 166.866,398.004 165.802,398.004 164.471 C 398.004 163.140,397.827 162.076,397.605 162.076 C 397.385 162.076,397.206 161.098,397.206 159.904 C 397.206 158.709,397.026 157.621,396.806 157.485 C 396.587 157.349,396.407 156.530,396.407 155.665 C 396.407 154.800,396.228 154.092,396.008 154.092 C 395.788 154.092,395.609 153.373,395.609 152.495 C 395.609 151.617,395.429 150.898,395.210 150.898 C 394.990 150.898,394.810 150.180,394.810 149.301 C 394.810 148.423,394.631 147.705,394.411 147.705 C 394.192 147.705,394.012 147.086,394.012 146.331 C 394.012 145.575,393.832 144.846,393.613 144.711 C 393.393 144.575,393.214 143.756,393.214 142.891 C 393.214 142.025,393.034 141.317,392.814 141.317 C 392.595 141.317,392.415 140.958,392.415 140.519 C 392.415 140.080,392.272 139.721,392.098 139.721 C 391.923 139.721,391.735 139.047,391.681 138.224 C 391.626 137.400,391.410 136.667,391.200 136.593 C 390.990 136.520,390.818 135.936,390.818 135.296 C 390.818 134.656,390.682 134.132,390.516 134.132 C 390.166 134.132,389.222 131.289,389.222 130.234 C 389.222 129.840,388.862 129.259,388.423 128.942 C 387.954 128.604,387.625 127.909,387.625 127.257 C 387.625 126.647,387.445 126.148,387.226 126.148 C 387.006 126.148,386.826 125.609,386.826 124.950 C 386.826 124.291,386.647 123.752,386.427 123.752 C 386.208 123.752,386.028 123.393,386.028 122.954 C 386.028 122.515,385.848 122.156,385.629 122.156 C 385.409 122.156,385.230 121.796,385.230 121.357 C 385.230 120.918,385.050 120.559,384.830 120.559 C 384.611 120.559,384.431 120.020,384.431 119.361 C 384.431 118.703,384.251 118.164,384.032 118.164 C 383.812 118.164,383.633 117.804,383.633 117.365 C 383.633 116.926,383.453 116.567,383.234 116.567 C 383.014 116.567,382.834 116.028,382.834 115.369 C 382.834 114.711,382.655 114.172,382.435 114.172 C 382.216 114.172,382.036 113.812,382.036 113.373 C 382.036 112.934,381.856 112.575,381.637 112.575 C 381.417 112.575,381.238 112.216,381.238 111.776 C 381.238 111.337,381.058 110.978,380.838 110.978 C 380.619 110.978,380.439 110.619,380.439 110.180 C 380.439 109.741,380.259 109.381,380.040 109.381 C 379.820 109.381,379.641 109.022,379.641 108.583 C 379.641 108.144,379.461 107.784,379.242 107.784 C 379.022 107.784,378.842 107.425,378.842 106.986 C 378.842 106.547,378.663 106.188,378.443 106.188 C 378.224 106.188,378.044 105.894,378.044 105.536 C 378.044 105.177,377.713 104.594,377.309 104.238 C 376.905 103.883,376.454 103.105,376.307 102.509 C 376.160 101.913,375.592 100.978,375.046 100.431 C 374.499 99.885,374.052 99.160,374.052 98.821 C 374.052 98.481,373.872 98.204,373.653 98.204 C 373.433 98.204,373.253 97.844,373.253 97.405 C 373.253 96.966,373.074 96.607,372.854 96.607 C 372.635 96.607,372.455 96.248,372.455 95.808 C 372.455 95.369,372.306 95.010,372.123 95.010 C 371.941 95.010,371.542 94.516,371.237 93.912 C 370.933 93.308,370.184 92.063,369.573 91.146 C 368.963 90.228,368.463 89.285,368.463 89.050 C 368.463 88.815,368.314 88.623,368.131 88.623 C 367.949 88.623,367.545 88.129,367.233 87.525 C 366.922 86.921,366.352 86.079,365.968 85.653 C 365.584 85.228,365.269 84.644,365.269 84.356 C 365.269 84.068,364.910 83.832,364.471 83.832 C 363.891 83.832,363.673 83.566,363.673 82.857 C 363.673 82.321,363.358 81.647,362.974 81.360 C 362.590 81.073,362.024 80.350,361.716 79.754 C 361.409 79.158,361.005 78.764,360.818 78.879 C 360.632 78.995,360.479 78.719,360.479 78.267 C 360.479 77.815,360.299 77.445,360.080 77.445 C 359.860 77.445,359.681 77.215,359.681 76.934 C 359.681 76.654,359.321 76.165,358.882 75.848 C 358.443 75.532,358.084 75.087,358.084 74.860 C 358.084 74.633,357.365 73.684,356.487 72.752 C 355.609 71.819,354.890 70.944,354.890 70.806 C 354.890 70.201,352.130 67.555,351.952 67.990 C 351.846 68.250,351.745 68.131,351.728 67.725 C 351.696 66.983,349.525 64.671,348.860 64.671 C 348.664 64.671,348.503 64.348,348.503 63.953 C 348.503 63.002,330.734 45.690,329.201 45.147 C 328.949 45.058,328.452 44.654,328.097 44.249 C 327.742 43.844,327.287 43.513,327.087 43.513 C 326.887 43.513,326.464 43.154,326.148 42.715 C 325.831 42.275,325.382 41.916,325.150 41.916 C 324.917 41.916,324.468 41.557,324.152 41.118 C 323.835 40.679,323.345 40.319,323.062 40.319 C 322.779 40.319,321.984 39.780,321.294 39.122 C 320.605 38.463,319.769 37.924,319.435 37.924 C 319.102 37.924,318.940 37.813,319.076 37.677 C 319.389 37.364,318.676 36.688,317.265 35.960 C 316.662 35.649,316.168 35.245,316.168 35.062 C 316.168 34.880,315.932 34.731,315.644 34.731 C 315.356 34.731,314.735 34.371,314.264 33.932 C 313.792 33.493,313.130 33.134,312.791 33.134 C 312.453 33.134,312.176 32.954,312.176 32.735 C 312.176 32.515,311.860 32.335,311.473 32.335 C 311.087 32.335,310.547 31.976,310.272 31.537 C 309.998 31.098,309.506 30.739,309.178 30.739 C 308.851 30.739,308.583 30.589,308.583 30.407 C 308.583 30.224,308.089 29.828,307.485 29.526 C 306.881 29.224,306.081 28.724,305.708 28.416 C 304.877 27.730,301.401 25.948,300.895 25.948 C 300.692 25.948,300.218 25.566,299.840 25.100 C 299.448 24.615,298.693 24.251,298.080 24.251 C 297.296 24.251,297.006 24.049,297.006 23.503 C 297.006 23.021,296.722 22.754,296.208 22.754 C 295.768 22.754,295.409 22.575,295.409 22.355 C 295.409 22.136,295.050 21.956,294.611 21.956 C 294.172 21.956,293.812 21.776,293.812 21.557 C 293.812 21.337,293.453 21.158,293.014 21.158 C 292.575 21.158,292.216 20.978,292.216 20.758 C 292.216 20.539,291.856 20.359,291.417 20.359 C 290.978 20.359,290.619 20.180,290.619 19.960 C 290.619 19.741,290.259 19.561,289.820 19.561 C 289.381 19.561,289.022 19.381,289.022 19.162 C 289.022 18.942,288.663 18.762,288.224 18.762 C 287.784 18.762,287.425 18.583,287.425 18.363 C 287.425 18.144,287.076 17.964,286.650 17.964 C 286.224 17.964,285.764 17.784,285.629 17.565 C 285.493 17.345,284.944 17.166,284.408 17.166 C 283.872 17.166,283.433 16.986,283.433 16.766 C 283.433 16.547,283.074 16.367,282.635 16.367 C 282.196 16.367,281.836 16.188,281.836 15.968 C 281.836 15.749,281.297 15.569,280.639 15.569 C 279.980 15.569,279.441 15.389,279.441 15.170 C 279.441 14.950,279.082 14.770,278.643 14.770 C 278.204 14.770,277.844 14.591,277.844 14.371 C 277.844 14.152,277.485 13.972,277.046 13.972 C 276.607 13.972,276.248 13.792,276.248 13.573 C 276.248 13.353,275.709 13.174,275.050 13.174 C 274.391 13.174,273.852 12.994,273.852 12.774 C 273.852 12.555,273.493 12.375,273.054 12.375 C 272.615 12.375,272.255 12.196,272.255 11.976 C 272.255 11.756,271.911 11.577,271.490 11.577 C 271.070 11.577,270.634 11.352,270.523 11.078 C 270.367 10.695,270.229 10.710,269.927 11.143 C 269.594 11.620,269.429 11.602,268.850 11.023 C 268.475 10.647,267.650 10.237,267.018 10.110 C 266.386 9.984,265.868 9.723,265.868 9.531 C 265.868 9.339,265.329 9.182,264.671 9.182 C 264.012 9.182,263.473 9.002,263.473 8.782 C 263.473 8.563,262.934 8.383,262.275 8.383 C 261.617 8.383,261.078 8.204,261.078 7.984 C 261.078 7.764,260.359 7.585,259.481 7.585 C 258.603 7.585,257.884 7.405,257.884 7.186 C 257.884 6.966,257.266 6.786,256.511 6.786 C 255.755 6.786,255.026 6.607,254.890 6.387 C 254.755 6.168,254.115 5.988,253.469 5.988 C 252.824 5.988,252.295 5.808,252.295 5.589 C 252.295 5.369,251.577 5.190,250.699 5.190 C 249.820 5.190,249.102 5.010,249.102 4.790 C 249.102 4.571,248.394 4.391,247.529 4.391 C 246.663 4.391,245.844 4.212,245.709 3.992 C 245.573 3.772,244.664 3.593,243.689 3.593 C 242.714 3.593,241.916 3.413,241.916 3.194 C 241.916 2.974,241.018 2.794,239.920 2.794 C 238.822 2.794,237.924 2.631,237.924 2.432 C 237.924 2.073,235.947 1.783,230.540 1.349 C 229.003 1.225,227.620 0.921,227.467 0.672 C 227.191 0.226,185.738 -0.096,176.347 0.274 M335.729 70.179 C 342.465 73.175,344.000 82.082,338.769 87.824 C 338.269 88.373,336.637 90.529,335.142 92.615 C 333.647 94.701,332.016 96.856,331.518 97.405 C 331.020 97.954,330.282 98.971,329.877 99.664 C 329.473 100.358,328.064 102.304,326.747 103.990 C 325.429 105.675,323.812 107.824,323.154 108.764 C 322.495 109.704,320.884 111.889,319.573 113.620 C 317.111 116.870,315.463 119.121,313.391 122.065 C 312.731 123.002,312.004 123.990,311.776 124.260 C 310.579 125.674,303.873 134.798,303.137 136.012 C 302.667 136.789,302.125 137.537,301.931 137.674 C 301.738 137.812,300.327 139.631,298.796 141.717 C 297.265 143.802,295.873 145.689,295.704 145.908 C 295.360 146.354,294.394 147.669,290.656 152.786 C 289.249 154.712,287.694 156.737,287.200 157.285 C 286.705 157.834,285.970 158.842,285.566 159.526 C 284.929 160.602,282.357 164.115,280.797 166.042 C 280.518 166.386,278.301 169.361,275.870 172.655 C 273.439 175.948,270.909 179.361,270.249 180.240 C 269.589 181.118,267.536 183.902,265.687 186.427 C 263.838 188.952,261.625 191.916,260.769 193.014 C 259.913 194.112,258.730 195.729,258.141 196.607 C 255.668 200.292,239.873 221.303,239.433 221.490 C 239.262 221.564,239.122 221.779,239.122 221.969 C 239.122 222.404,236.813 225.848,236.316 226.155 C 236.113 226.280,235.287 227.378,234.480 228.594 C 233.672 229.810,232.276 231.266,231.376 231.830 C 230.477 232.393,229.651 232.962,229.541 233.094 C 229.431 233.225,228.533 233.771,227.545 234.307 C 226.557 234.842,224.760 235.916,223.553 236.693 C 222.345 237.470,220.905 238.379,220.353 238.713 C 218.349 239.927,215.417 241.749,213.109 243.214 C 209.234 245.674,208.291 245.180,209.391 241.264 C 210.038 238.959,210.606 236.488,211.029 234.132 C 211.148 233.473,211.499 232.368,211.810 231.676 C 212.121 230.984,212.375 229.981,212.375 229.447 C 212.375 228.913,212.510 228.342,212.674 228.177 C 212.968 227.883,213.688 225.307,214.356 222.156 C 214.975 219.237,215.546 217.775,216.460 216.766 C 216.958 216.218,217.899 214.960,218.551 213.972 C 219.204 212.984,220.192 211.622,220.747 210.945 C 221.302 210.269,222.745 208.317,223.952 206.608 C 225.160 204.899,226.776 202.723,227.545 201.772 C 228.313 200.821,229.696 199.000,230.617 197.726 C 234.809 191.929,235.520 190.979,236.104 190.386 C 236.446 190.038,236.727 189.636,236.727 189.493 C 236.727 189.351,237.670 188.006,238.822 186.507 C 240.880 183.829,241.431 183.088,243.219 180.589 C 243.995 179.504,247.079 175.403,247.983 174.251 C 249.123 172.801,252.231 168.599,254.035 166.068 C 255.210 164.421,258.397 160.084,261.119 156.431 C 263.841 152.777,266.786 148.761,267.665 147.506 C 268.543 146.251,270.008 144.289,270.921 143.144 C 271.833 142.000,273.036 140.391,273.594 139.569 C 274.152 138.747,275.071 137.502,275.636 136.802 C 276.202 136.102,277.650 134.182,278.855 132.535 C 280.060 130.888,281.186 129.361,281.358 129.142 C 282.929 127.140,285.416 123.799,286.228 122.602 C 286.776 121.792,288.396 119.608,289.826 117.750 C 291.256 115.892,293.102 113.346,293.928 112.093 C 294.753 110.841,295.619 109.698,295.851 109.554 C 296.084 109.411,296.894 108.370,297.653 107.241 C 299.288 104.810,300.600 102.988,301.962 101.262 C 303.116 99.797,305.238 96.975,306.387 95.376 C 306.826 94.765,308.308 92.740,309.681 90.877 C 312.383 87.208,312.509 86.858,311.515 85.760 C 309.847 83.917,307.302 85.048,304.939 88.681 C 304.418 89.482,302.735 91.756,301.198 93.734 C 299.661 95.713,297.685 98.361,296.806 99.620 C 295.928 100.878,293.054 104.802,290.419 108.339 C 287.784 111.876,285.283 115.309,284.860 115.968 C 284.438 116.627,283.882 117.345,283.625 117.565 C 283.369 117.784,282.019 119.581,280.626 121.557 C 279.233 123.533,277.678 125.657,277.170 126.278 C 276.531 127.060,276.248 127.923,276.248 129.086 C 276.248 130.830,276.318 130.716,270.769 137.919 C 268.825 140.442,267.482 140.985,265.967 139.858 C 264.331 138.641,264.230 136.149,265.745 134.376 C 266.361 133.653,268.393 130.956,270.259 128.381 C 272.126 125.806,275.090 121.797,276.846 119.472 C 279.718 115.671,281.581 113.146,283.706 110.180 C 284.791 108.665,292.493 98.222,293.864 96.407 C 294.527 95.529,296.065 93.463,297.281 91.816 C 298.497 90.170,299.837 88.373,300.260 87.824 C 300.682 87.275,302.213 85.238,303.662 83.297 C 308.192 77.227,311.607 75.872,315.418 78.632 C 317.441 80.097,317.937 79.898,320.136 76.737 C 325.040 69.690,329.967 67.617,335.729 70.179 M194.952 79.245 C 199.481 80.357,200.589 80.796,202.629 82.282 C 206.443 85.060,208.166 87.513,210.585 93.613 C 211.195 95.150,211.916 96.946,212.187 97.605 C 212.459 98.263,212.903 99.431,213.174 100.200 C 213.445 100.968,214.005 102.358,214.419 103.289 C 214.832 104.220,215.170 105.075,215.170 105.190 C 215.170 105.304,215.510 106.159,215.927 107.090 C 216.343 108.021,217.452 110.758,218.390 113.174 C 219.329 115.589,220.245 117.736,220.427 117.944 C 220.609 118.153,220.758 118.649,220.758 119.047 C 220.758 119.446,220.918 120.083,221.113 120.464 C 222.043 122.280,222.858 124.276,224.169 127.944 C 224.953 130.140,225.967 132.745,226.421 133.733 C 226.875 134.721,227.383 135.888,227.549 136.327 C 227.715 136.766,228.321 138.293,228.897 139.721 C 229.472 141.148,229.942 142.445,229.941 142.604 C 229.941 142.763,230.368 143.840,230.892 144.999 C 231.416 146.158,232.065 147.735,232.336 148.503 C 232.607 149.271,233.053 150.439,233.327 151.098 C 233.601 151.756,234.502 154.002,235.327 156.088 C 236.153 158.174,237.075 160.464,237.376 161.178 C 238.581 164.031,239.223 165.510,239.621 166.353 C 240.034 167.225,239.552 168.046,236.042 172.446 C 235.775 172.780,235.057 173.714,234.445 174.522 C 233.834 175.329,232.255 177.376,230.938 179.070 C 229.621 180.764,228.170 182.658,227.713 183.279 C 226.181 185.364,224.964 186.946,222.551 189.989 C 221.231 191.653,219.368 194.047,218.410 195.309 C 217.453 196.572,216.537 197.605,216.376 197.605 C 216.120 197.605,214.457 193.748,212.503 188.623 C 212.168 187.745,211.733 186.714,211.536 186.333 C 211.339 185.952,211.178 185.365,211.178 185.030 C 211.178 184.695,210.996 184.108,210.773 183.727 C 210.087 182.551,207.984 177.167,207.984 176.586 C 207.984 176.284,207.816 175.725,207.611 175.344 C 206.762 173.769,205.988 171.901,205.988 171.428 C 205.988 171.150,205.688 170.325,205.322 169.593 C 204.107 167.169,203.992 166.882,203.992 166.267 C 203.992 165.932,203.831 165.346,203.634 164.965 C 203.437 164.583,202.963 163.463,202.582 162.475 C 202.200 161.487,201.669 160.140,201.403 159.481 C 201.136 158.822,200.693 157.655,200.419 156.886 C 197.510 148.749,196.110 146.880,192.709 146.598 C 190.000 146.373,186.427 148.186,186.427 149.785 C 186.427 150.090,186.270 150.510,186.077 150.719 C 185.885 150.927,185.330 152.265,184.846 153.693 C 184.361 155.120,183.837 156.467,183.682 156.687 C 183.527 156.906,183.171 157.804,182.891 158.683 C 182.611 159.561,182.215 160.639,182.011 161.078 C 181.560 162.048,179.986 166.274,178.368 170.858 C 177.709 172.725,176.892 174.790,176.552 175.449 C 175.373 177.733,175.250 178.036,175.250 178.643 C 175.250 178.978,175.088 179.564,174.891 179.946 C 174.694 180.327,174.221 181.447,173.839 182.435 C 173.457 183.423,172.900 184.798,172.600 185.489 C 172.301 186.181,172.056 186.947,172.056 187.191 C 172.056 187.436,171.897 187.948,171.703 188.329 C 170.957 189.796,168.463 196.173,168.463 196.615 C 168.463 196.763,168.215 197.451,167.911 198.143 C 167.607 198.835,167.138 200.030,166.869 200.798 C 166.599 201.567,165.836 203.543,165.172 205.190 C 164.508 206.836,163.831 208.543,163.667 208.982 C 162.986 210.805,162.105 213.127,161.166 215.569 C 160.617 216.996,159.947 218.792,159.678 219.561 C 159.408 220.329,158.963 221.497,158.687 222.156 C 158.412 222.814,157.704 224.701,157.113 226.347 C 156.522 227.994,155.870 229.653,155.664 230.035 C 155.458 230.416,155.289 230.966,155.289 231.257 C 155.289 231.548,154.956 232.494,154.550 233.358 C 154.143 234.223,153.560 235.514,153.255 236.228 L 152.699 237.525 134.657 237.525 C 124.152 237.525,116.519 237.372,116.388 237.159 C 116.152 236.778,118.285 231.217,119.805 228.249 C 120.000 227.868,120.160 227.281,120.160 226.946 C 120.160 226.611,120.333 226.025,120.546 225.643 C 120.758 225.262,121.495 223.513,122.183 221.756 C 122.872 220.000,123.674 218.024,123.965 217.364 C 125.550 213.777,126.274 211.996,126.807 210.379 C 127.133 209.391,127.641 208.044,127.937 207.385 C 128.234 206.727,128.956 204.930,129.544 203.393 C 130.970 199.663,131.161 199.171,131.639 198.004 C 133.066 194.521,134.519 190.821,134.930 189.621 C 135.654 187.512,137.404 183.341,138.152 181.942 C 138.356 181.560,138.523 180.974,138.523 180.639 C 138.523 180.303,138.697 179.717,138.910 179.336 C 139.122 178.955,140.031 176.756,140.929 174.451 C 141.826 172.146,142.730 169.948,142.937 169.566 C 143.144 169.185,143.313 168.635,143.313 168.344 C 143.313 168.052,143.762 166.883,144.311 165.745 C 144.860 164.608,145.309 163.568,145.309 163.436 C 145.309 163.303,145.597 162.539,145.949 161.737 C 146.731 159.955,146.912 159.510,148.490 155.489 C 149.179 153.733,149.898 151.936,150.089 151.497 C 150.279 151.058,150.924 149.351,151.521 147.705 C 152.119 146.058,152.845 144.261,153.135 143.713 C 153.425 143.164,153.927 141.906,154.251 140.918 C 155.116 138.272,156.902 133.989,157.320 133.553 C 157.521 133.344,157.685 132.771,157.685 132.279 C 157.685 131.787,157.864 131.273,158.084 131.138 C 158.303 131.002,158.483 130.576,158.483 130.191 C 158.483 129.806,158.932 128.560,159.481 127.422 C 160.030 126.284,160.479 125.245,160.479 125.112 C 160.479 124.980,160.725 124.305,161.027 123.613 C 161.328 122.921,162.250 120.649,163.076 118.563 C 163.902 116.477,164.806 114.232,165.085 113.573 C 165.365 112.914,165.911 111.477,166.299 110.379 C 166.686 109.281,167.129 108.204,167.282 107.984 C 167.435 107.764,167.785 106.866,168.059 105.988 C 168.584 104.306,169.480 102.067,170.093 100.904 C 170.295 100.522,170.459 99.971,170.459 99.679 C 170.459 99.387,170.998 98.094,171.657 96.806 C 172.315 95.518,172.854 94.149,172.854 93.763 C 172.854 93.377,173.034 92.950,173.253 92.814 C 173.473 92.679,173.653 92.240,173.653 91.838 C 173.653 89.257,179.159 82.889,182.975 81.058 C 187.392 78.939,191.297 78.347,194.952 79.245 M259.069 216.168 C 259.568 217.485,260.672 220.230,261.525 222.268 C 262.377 224.306,263.074 226.131,263.074 226.323 C 263.074 226.705,265.225 231.715,265.868 232.829 C 266.088 233.210,266.267 233.796,266.267 234.132 C 266.267 234.467,266.435 235.053,266.639 235.435 C 266.844 235.816,267.572 237.565,268.257 239.321 C 268.943 241.078,269.673 242.919,269.881 243.413 C 270.264 244.322,270.402 244.670,271.662 247.904 C 272.047 248.892,272.788 250.649,273.307 251.807 C 273.826 252.966,274.251 254.070,274.251 254.260 C 274.251 254.541,276.298 259.936,277.822 263.673 C 278.001 264.112,278.463 265.279,278.848 266.267 C 279.233 267.255,279.973 269.012,280.493 270.171 C 281.012 271.329,281.437 272.454,281.437 272.671 C 281.437 272.888,281.599 273.377,281.796 273.758 C 281.994 274.139,282.640 275.709,283.233 277.246 C 283.825 278.782,284.460 280.399,284.644 280.838 C 284.828 281.277,285.814 283.703,286.836 286.228 C 289.364 292.480,289.461 292.711,289.897 293.556 C 290.108 293.964,290.607 295.312,291.005 296.550 C 291.404 297.789,291.952 299.341,292.222 300.000 C 292.493 300.659,292.847 301.557,293.010 301.996 C 293.173 302.435,293.507 303.244,293.751 303.792 C 293.996 304.341,295.191 307.395,296.407 310.579 C 297.623 313.762,298.819 316.816,299.066 317.365 C 300.133 319.745,300.637 320.975,302.011 324.551 C 302.813 326.637,303.632 328.655,303.831 329.037 C 304.444 330.213,305.377 333.096,305.383 333.832 C 305.389 334.488,304.252 334.531,287.059 334.531 C 267.851 334.531,267.465 334.506,267.465 333.285 C 267.465 332.867,267.304 332.212,267.107 331.831 C 266.794 331.226,266.382 330.197,265.070 326.747 C 263.758 323.296,263.345 322.267,263.033 321.662 C 262.836 321.281,262.675 320.680,262.675 320.326 C 262.675 319.973,262.418 319.207,262.103 318.624 C 261.789 318.042,261.048 316.218,260.456 314.571 C 259.509 311.934,258.225 308.523,257.002 305.389 C 256.788 304.840,256.360 303.883,256.051 303.261 C 255.742 302.639,255.489 301.882,255.489 301.578 C 255.489 301.274,255.195 300.345,254.835 299.515 C 254.475 298.684,254.047 297.645,253.884 297.206 C 253.720 296.766,253.116 295.240,252.540 293.812 C 251.965 292.385,251.495 290.991,251.496 290.713 C 251.496 290.436,251.326 289.897,251.117 289.516 C 250.542 288.466,249.628 286.216,249.052 284.431 C 248.768 283.553,248.398 282.641,248.229 282.405 C 247.940 282.001,245.899 276.596,244.287 271.968 C 243.888 270.822,243.297 269.295,242.973 268.575 C 242.650 267.855,241.996 266.188,241.520 264.870 C 239.341 258.835,239.036 258.061,238.691 257.705 C 238.489 257.496,238.323 257.000,238.323 256.601 C 238.323 256.203,238.170 255.565,237.983 255.184 C 237.019 253.222,236.323 251.483,235.707 249.501 C 235.331 248.293,234.894 247.126,234.734 246.906 C 233.836 245.670,233.969 243.898,235.056 242.617 C 235.663 241.902,236.421 240.935,236.742 240.467 C 238.725 237.574,243.463 231.113,244.490 229.900 C 245.160 229.109,248.313 224.939,251.497 220.634 C 257.886 211.994,257.562 212.184,259.069 216.168 M206.387 246.681 C 206.387 247.052,199.265 255.013,193.953 260.580 L 191.190 263.476 138.210 263.375 L 85.230 263.273 85.121 255.301 C 85.061 250.916,85.101 247.098,85.208 246.818 C 85.450 246.188,206.387 246.051,206.387 246.681 M138.922 273.639 C 138.922 273.961,138.664 274.814,138.349 275.535 C 138.034 276.256,137.283 278.194,136.680 279.840 C 136.077 281.487,135.437 283.005,135.257 283.214 C 135.077 283.422,134.930 283.970,134.930 284.431 C 134.930 284.892,134.783 285.440,134.603 285.649 C 134.423 285.857,133.781 287.375,133.176 289.022 C 131.913 292.457,131.048 294.695,130.321 296.407 C 130.042 297.066,129.351 298.991,128.786 300.686 C 128.221 302.380,127.306 304.704,126.754 305.850 C 126.201 306.996,125.749 308.224,125.749 308.578 C 125.749 308.932,125.591 309.392,125.399 309.601 C 125.206 309.809,124.652 311.148,124.168 312.575 C 123.684 314.002,122.924 316.068,122.481 317.166 C 122.037 318.263,121.534 319.521,121.364 319.960 C 120.090 323.239,119.649 324.411,118.363 327.944 C 117.563 330.140,116.655 332.520,116.345 333.234 L 115.781 334.531 96.813 334.531 C 86.380 334.531,77.844 334.426,77.844 334.297 C 77.844 333.941,82.986 320.856,83.437 320.065 C 83.654 319.684,83.832 319.098,83.832 318.762 C 83.832 318.427,84.003 317.841,84.212 317.460 C 84.752 316.474,85.355 315.007,89.005 305.788 C 90.787 301.287,92.400 297.246,92.589 296.806 C 92.779 296.367,93.150 295.379,93.416 294.611 C 93.681 293.842,94.133 292.675,94.421 292.016 C 94.709 291.357,95.610 289.112,96.425 287.026 C 97.239 284.940,98.152 282.667,98.453 281.976 C 98.755 281.284,99.002 280.518,99.002 280.274 C 99.002 280.029,99.182 279.518,99.402 279.136 C 99.622 278.755,100.333 277.231,100.982 275.749 L 102.162 273.054 120.542 273.054 C 136.425 273.054,138.922 273.133,138.922 273.639 " stroke="none" fill="#fbfbfb" fill-rule="evenodd"></path></g></svg>