<?xml version="1.0" standalone="no"?>
<!DOCTYPE svg PUBLIC "-//W3C//DTD SVG 20010904//EN"
 "http://www.w3.org/TR/2001/REC-SVG-20010904/DTD/svg10.dtd">
<svg version="1.0" xmlns="http://www.w3.org/2000/svg"
 width="176.000000pt" height="176.000000pt" viewBox="0 0 176.000000 176.000000"
 preserveAspectRatio="xMidYMid meet">

<g transform="translate(0.000000,176.000000) scale(0.100000,-0.100000)"
fill="#000000" stroke="none">
<path d="M822 1493 c-40 -76 -5 -269 64 -360 83 -109 121 71 53 251 -39 105
-93 155 -117 109z"/>
<path d="M1204 1230 c-116 -66 -175 -200 -129 -290 47 -92 203 -76 299 30 49
55 66 97 66 166 0 50 -3 59 -34 90 -31 31 -39 34 -92 34 -47 0 -70 -6 -110
-30z"/>
<path d="M330 1172 l-25 -20 21 -29 c45 -60 182 -113 293 -113 77 0 107 15 97
47 -16 51 -169 119 -290 129 -62 6 -74 4 -96 -14z"/>
<path d="M561 798 c-57 -28 -162 -130 -190 -185 -58 -114 12 -132 140 -36 95
72 177 196 154 233 -10 17 -57 11 -104 -12z"/>
<path d="M1054 750 c-54 -22 -34 -61 54 -108 114 -61 282 -90 330 -56 19 13
20 18 10 37 -16 30 -33 44 -104 78 -97 47 -237 71 -290 49z"/>
<path d="M806 658 c-33 -46 -8 -236 42 -335 26 -50 64 -85 85 -77 62 24 20
309 -60 404 -30 36 -47 38 -67 8z"/>
</g>
</svg>
